<svg width="390" height="844" viewBox="0 0 390 844" fill="none" xmlns="http://www.w3.org/2000/svg">
<g clip-path="url(#clip0_869_23704)">
<rect width="390" height="844" fill="white"/>
<line x1="15.5" y1="2.43628e-08" x2="15.5" y2="447" stroke="#F07F22"/>
<line x1="35.5" y1="2.43628e-08" x2="35.5" y2="447" stroke="#F07F22"/>
<line x1="55.5" y1="2.43628e-08" x2="55.5" y2="447" stroke="#F07F22"/>
<line x1="75.5" y1="2.43628e-08" x2="75.5" y2="447" stroke="#F07F22"/>
<line x1="95.5" y1="2.43628e-08" x2="95.5" y2="447" stroke="#F07F22"/>
<line x1="115.5" y1="2.43628e-08" x2="115.5" y2="447" stroke="#F07F22"/>
<line x1="135.5" y1="2.43628e-08" x2="135.5" y2="447" stroke="#F07F22"/>
<line x1="155.5" y1="2.43628e-08" x2="155.5" y2="447" stroke="#F07F22"/>
<line x1="175.5" y1="2.43628e-08" x2="175.5" y2="447" stroke="#F07F22"/>
<line x1="195.5" y1="2.43628e-08" x2="195.5" y2="447" stroke="#F07F22"/>
<line x1="215.5" y1="2.43628e-08" x2="215.5" y2="447" stroke="#F07F22"/>
<line x1="235.5" y1="2.43628e-08" x2="235.5" y2="447" stroke="#F07F22"/>
<line x1="255.5" y1="2.43628e-08" x2="255.5" y2="447" stroke="#F07F22"/>
<line x1="275.5" y1="2.43628e-08" x2="275.5" y2="447" stroke="#F07F22"/>
<line x1="295.5" y1="2.43628e-08" x2="295.5" y2="447" stroke="#F07F22"/>
<line x1="315.5" y1="2.43628e-08" x2="315.5" y2="447" stroke="#F07F22"/>
<line x1="335.5" y1="2.43628e-08" x2="335.5" y2="447" stroke="#F07F22"/>
<line x1="355.5" y1="2.43628e-08" x2="355.5" y2="447" stroke="#F07F22"/>
<line x1="375.5" y1="2.43628e-08" x2="375.5" y2="447" stroke="#F07F22"/>
<line x1="-6" y1="439.5" x2="395" y2="439.5" stroke="#F07F22"/>
<line x1="-6" y1="419.5" x2="395" y2="419.5" stroke="#F07F22"/>
<line x1="-6" y1="399.5" x2="395" y2="399.5" stroke="#F07F22"/>
<line x1="-6" y1="379.5" x2="395" y2="379.5" stroke="#F07F22"/>
<line x1="-6" y1="359.5" x2="395" y2="359.5" stroke="#F07F22"/>
<line x1="-6" y1="339.5" x2="395" y2="339.5" stroke="#F07F22"/>
<line x1="-6" y1="319.5" x2="395" y2="319.5" stroke="#F07F22"/>
<line x1="-6" y1="299.5" x2="395" y2="299.5" stroke="#F07F22"/>
<line x1="-6" y1="279.5" x2="395" y2="279.5" stroke="#F07F22"/>
<line x1="-6" y1="259.5" x2="395" y2="259.5" stroke="#F07F22"/>
<line x1="-6" y1="239.5" x2="395" y2="239.5" stroke="#F07F22"/>
<line x1="-6" y1="219.5" x2="395" y2="219.5" stroke="#F07F22"/>
<line x1="-6" y1="199.5" x2="395" y2="199.5" stroke="#F07F22"/>
<line x1="-6" y1="179.5" x2="395" y2="179.5" stroke="#F07F22"/>
<line x1="-6" y1="159.5" x2="395" y2="159.5" stroke="#F07F22"/>
<line x1="-6" y1="139.5" x2="395" y2="139.5" stroke="#F07F22"/>
<line x1="-6" y1="119.5" x2="395" y2="119.5" stroke="#F07F22"/>
<line x1="-6" y1="99.5" x2="395" y2="99.5" stroke="#F07F22"/>
<line x1="-6" y1="79.5" x2="395" y2="79.5" stroke="#F07F22"/>
<line x1="-6" y1="59.5" x2="395" y2="59.5" stroke="#F07F22"/>
<line x1="-6" y1="39.5" x2="395" y2="39.5" stroke="#F07F22"/>
<line x1="-6" y1="19.5" x2="395" y2="19.5" stroke="#F07F22"/>
<rect width="390" height="844" fill="url(#paint0_linear_869_23704)"/>
</g>
<defs>
<linearGradient id="paint0_linear_869_23704" x1="195" y1="-1128" x2="195" y2="431.5" gradientUnits="userSpaceOnUse">
<stop stop-color="white" stop-opacity="0"/>
<stop offset="1" stop-color="white"/>
</linearGradient>
<clipPath id="clip0_869_23704">
<rect width="390" height="844" fill="white"/>
</clipPath>
</defs>
</svg>
