<?xml version="1.0" encoding="UTF-8"?>
<svg version="1.1" xmlns="http://www.w3.org/2000/svg" width="503" height="369">
<path d="M0 0 C165.99 0 331.98 0 503 0 C503 121.77 503 243.54 503 369 C337.01 369 171.02 369 0 369 C0 247.23 0 125.46 0 0 Z " fill="#FEFEFE" transform="translate(0,0)"/>
<path d="M0 0 C1.60229965 -0.01073296 1.60229965 -0.01073296 3.23696899 -0.02168274 C4.41410461 -0.02437164 5.59124023 -0.02706055 6.80404663 -0.02983093 C8.03994537 -0.03640213 9.27584412 -0.04297333 10.54919434 -0.04974365 C14.65546914 -0.06951776 18.76170482 -0.08115027 22.86801147 -0.09111023 C24.28250523 -0.095158 25.6969988 -0.09927492 27.11149216 -0.10346031 C33.76006894 -0.12251822 40.4086346 -0.13674537 47.05723345 -0.14507228 C54.72411266 -0.15483343 62.39070228 -0.18112073 70.0574795 -0.22157317 C75.98710991 -0.25178212 81.91665758 -0.26654585 87.84636343 -0.26985329 C91.38575989 -0.27219929 94.92484723 -0.28109955 98.46416092 -0.30631447 C102.41869499 -0.33403074 106.37285188 -0.32974941 110.32748413 -0.32279968 C111.49247437 -0.33560974 112.6574646 -0.3484198 113.85775757 -0.36161804 C121.86911736 -0.3103523 127.13568118 0.91632904 133.39144897 6.20967102 C135.95251078 9.38538766 136.08058365 12.12997036 136.09197998 16.06118774 C136.09743332 17.07475342 136.10288666 18.08831909 136.10850525 19.13259888 C136.10954758 20.24382614 136.1105899 21.35505341 136.11166382 22.49995422 C136.11674454 23.67093658 136.12182526 24.84191895 136.12705994 26.04838562 C136.14057328 29.26131748 136.14995537 32.47423577 136.15847731 35.68718362 C136.1692013 39.05165592 136.18778162 42.41608057 136.20629883 45.78051758 C136.26818845 57.24115666 136.32221484 68.70179082 136.35531616 80.16255188 C136.3736782 86.49233683 136.40263369 92.82198161 136.44332087 99.15166348 C136.46436446 102.49978482 136.47815696 105.8475686 136.48212814 109.1957798 C136.48702962 112.93279723 136.51016939 116.66929263 136.53744507 120.40620422 C136.53443893 121.5113588 136.5314328 122.61651337 136.52833557 123.75515747 C136.58831989 129.2816652 136.76017286 133.41079891 139.95394897 138.14717102 C141.88977494 139.85588902 141.88977494 139.85588902 144.14144897 141.08467102 C157.76514439 149.62159704 163.57901395 160.40826324 168.95394897 175.14717102 C169.4102771 176.36920227 169.86660522 177.59123352 170.33676147 178.85029602 C178.83399889 202.76467676 178.6745009 226.92338797 174.39730835 251.75361633 C169.82571997 279.07429924 175.891227 296.55308806 190.95394897 319.14717102 C190.95394897 320.46717102 190.95394897 321.78717102 190.95394897 323.14717102 C188.97394897 323.47717102 186.99394897 323.80717102 184.95394897 324.14717102 C169.20041653 301.3508829 161.16327796 281.11282369 165.98031616 252.85346985 C166.36562805 250.84431087 166.78174974 248.84112965 167.20004272 246.83857727 C171.4833945 225.86568903 169.36537979 205.38633829 162.95394897 185.14717102 C162.45653198 183.57153381 162.45653198 183.57153381 161.94906616 181.96406555 C157.41434033 165.94219124 157.41434033 165.94219124 147.57894897 152.95967102 C146.88930054 152.37701477 146.1996521 151.79435852 145.48910522 151.19404602 C141.75500173 148.17914582 137.9777827 145.21960937 134.17489624 142.29194641 C130.57791014 139.50407652 127.27503595 136.58322096 124.01644897 133.39717102 C121.32010678 130.85876398 121.32010678 130.85876398 117.88754272 129.84638977 C115.610126 130.12704112 113.62742628 130.47369372 111.95394897 132.14717102 C110.70806183 151.14694998 117.85313299 160.98921632 129.95394897 175.14717102 C130.61394897 175.80717102 131.27394897 176.46717102 131.95394897 177.14717102 C133.52840784 190.64253275 125.73115058 202.76343405 119.58285522 214.22529602 C112.29869936 227.82095397 106.65596658 240.65437017 103.49716187 255.81806946 C102.95394897 258.14717102 102.95394897 258.14717102 101.90536499 261.34565735 C100.7892977 265.80505785 100.70088395 269.79136749 100.75863647 274.36201477 C100.76146637 275.21775589 100.76429626 276.07349701 100.76721191 276.95516968 C100.77832963 279.66515093 100.80341815 282.37479111 100.82894897 285.08467102 C100.83898966 286.93167143 100.8481136 288.77867706 100.85629272 290.62568665 C100.87824134 295.13297779 100.91271243 299.64001675 100.95394897 304.14717102 C98.57894897 304.77217102 98.57894897 304.77217102 95.95394897 305.14717102 C90.0191177 299.21233975 93.31852276 288.53236812 92.95394897 280.14717102 C70.51394897 280.14717102 48.07394897 280.14717102 24.95394897 280.14717102 C36.38279381 301.10005321 50.39507572 313.71476268 72.82894897 321.70967102 C86.25923069 326.61624526 99.37324048 338.36663104 105.95394897 351.14717102 C106.13754272 353.94404602 106.13754272 353.94404602 105.95394897 356.14717102 C104.63394897 356.80717102 103.31394897 357.46717102 101.95394897 358.14717102 C101.58632446 357.71896057 101.21869995 357.29075012 100.8399353 356.8495636 C99.15083889 354.88447971 97.45867069 352.92206405 95.76644897 350.95967102 C95.18830444 350.28613586 94.61015991 349.61260071 94.01449585 348.9186554 C85.12077912 338.61802303 76.78547225 332.19589507 64.26644897 326.83467102 C43.92416245 317.78698586 29.664458 305.73809767 18.87875366 286.19941711 C17.06448029 282.55723364 17.06448029 282.55723364 13.95394897 280.14717102 C12.51440264 280.06596584 11.07156239 280.038883 9.62973022 280.04170227 C8.76541382 280.02687805 7.90109741 280.01205383 7.0105896 279.9967804 C5.20085174 279.97230707 3.39074751 279.96667663 1.5809021 279.9811554 C-4.18002889 279.84043687 -7.4200772 278.8466222 -11.68203735 274.91938782 C-15.02862882 270.5712748 -15.24799069 266.70866531 -15.07339478 261.34248352 C-15.06243774 260.03666321 -15.05148071 258.7308429 -15.04019165 257.38545227 C-15.01982806 255.32701244 -14.98366077 253.27483218 -14.89883423 251.2179718 C-14.7258896 246.66903701 -14.7765338 242.53398616 -16.04605103 238.14717102 C-19.32140919 234.84736989 -22.86959653 233.09280309 -27.04605103 231.14717102 C-33.36080193 226.74176668 -40.08372694 220.24748865 -41.55386353 212.45576477 C-41.64293533 208.18668042 -41.49347705 203.76003801 -39.04605103 200.14717102 C-36.48355103 199.27217102 -36.48355103 199.27217102 -34.04605103 199.14717102 C-33.71605103 199.47717102 -33.38605103 199.80717102 -33.04605103 200.14717102 C-33.11823853 201.00181946 -33.19042603 201.8564679 -33.26480103 202.73701477 C-33.68428165 207.72999938 -33.94824219 211.60653832 -31.36245728 216.02217102 C-24.96509576 223.29542779 -16.47028542 230.58364169 -6.48355103 231.45967102 C-3.12278679 231.3477379 -3.12278679 231.3477379 -0.60855103 230.02217102 C1.15620828 228.19010014 1.15620828 228.19010014 1.57894897 225.45967102 C0.49797596 219.73051404 -3.25857119 216.03979673 -7.17105103 211.89717102 C-10.05299884 210.14294192 -12.51933397 209.31576665 -15.73355103 208.33467102 C-27.26083587 204.67139891 -34.92505119 197.41440604 -41.24136353 187.21748352 C-42.97359544 182.76077035 -42.5634605 177.82940738 -42.04605103 173.14717102 C-40.35855103 169.89717102 -40.35855103 169.89717102 -38.04605103 168.14717102 C-35.35855103 167.77217102 -35.35855103 167.77217102 -33.04605103 168.14717102 C-32.71605103 168.47717102 -32.38605103 168.80717102 -32.04605103 169.14717102 C-32.24465229 171.35846273 -32.48047356 173.56644999 -32.73355103 175.77217102 C-33.21848509 182.24014297 -33.21046792 185.17018498 -29.04605103 190.14717102 C-23.22706662 196.28069512 -16.81294855 200.75644172 -8.23355103 201.45967102 C-4.53083185 201.20178713 -4.53083185 201.20178713 -1.04605103 200.14717102 C1.54879899 196.773866 1.31402803 193.25207226 0.95394897 189.14717102 C-1.07275966 183.95373014 -5.36223225 180.89462166 -10.04605103 178.14717102 C-13.28885603 176.80588472 -16.57000002 175.61562612 -19.86636353 174.41279602 C-29.99307477 170.38201661 -38.90632473 162.36045167 -43.42495728 152.31904602 C-44.99978107 146.812115 -44.71730582 141.32874911 -43.04605103 135.89717102 C-39.48872531 131.00584816 -34.751613 126.39448606 -29.04605103 124.14717102 C-26.68667603 123.95185852 -26.68667603 123.95185852 -24.29605103 124.02217102 C-23.49683228 124.0402179 -22.69761353 124.05826477 -21.87417603 124.07685852 C-21.27089478 124.10006165 -20.66761353 124.12326477 -20.04605103 124.14717102 C-19.42105103 126.52217102 -19.42105103 126.52217102 -19.04605103 129.14717102 C-21.98284493 132.08396493 -25.52145823 132.7682437 -29.41714478 134.04951477 C-32.02024293 135.13639528 -33.32942251 135.94480839 -35.04605103 138.14717102 C-36.44991322 142.35875761 -37.01014145 146.03897328 -35.10464478 150.20576477 C-30.23193543 158.2862138 -23.12047502 165.14460426 -14.04605103 168.14717102 C-8.69065342 168.75962341 -3.76769106 168.90866565 1.20394897 166.70967102 C3.39827435 163.49655172 3.79083362 161.36938314 3.56332397 157.51435852 C2.40000867 152.99532599 -0.7025623 150.23926962 -4.04605103 147.14717102 C-4.75245728 146.49232727 -5.45886353 145.83748352 -6.18667603 145.16279602 C-9.04556671 142.60038289 -11.84774062 140.27937796 -15.04605103 138.14717102 C-15.39907837 135.52095032 -15.39907837 135.52095032 -15.38198853 132.22138977 C-15.40132446 130.43764954 -15.40132446 130.43764954 -15.42105103 128.61787415 C-15.42105103 126.10744532 -15.41331157 123.59700389 -15.39761353 121.08662415 C-15.31626086 114.14023045 -15.31626086 114.14023045 -18.25308228 108.09638977 C-19.17476196 107.45314758 -20.09644165 106.8099054 -21.04605103 106.14717102 C-21.90843384 105.34537415 -22.77081665 104.54357727 -23.65933228 103.71748352 C-24.55007446 102.9105304 -25.44081665 102.10357727 -26.35855103 101.27217102 C-27.3150354 100.40463196 -28.27151978 99.5370929 -29.25698853 98.64326477 C-31.64149726 96.50922965 -34.05251007 94.41516861 -36.48355103 92.33467102 C-40.42405065 88.9099014 -45.506817 84.43900667 -46.38198853 79.09638977 C-46.47728374 73.57879696 -45.77473039 70.4805011 -42.04605103 66.14717102 C-37.65129891 62.27560368 -35.24558277 60.98564492 -29.42105103 60.89717102 C-28.4181604 60.87138977 -27.41526978 60.84560852 -26.38198853 60.81904602 C-23.4462263 61.10780952 -21.53640492 61.61455385 -18.83755493 62.66767883 C-18.12515656 62.94315552 -17.41275818 63.2186322 -16.67877197 63.50245667 C-16.13997406 63.7152124 -15.60117615 63.92796814 -15.04605103 64.14717102 C-15.05049225 63.49428604 -15.05493347 62.84140106 -15.05950928 62.16873169 C-15.10376604 55.37177215 -15.13392729 48.57485356 -15.15591431 41.77778625 C-15.16597003 39.24131101 -15.17961637 36.70484734 -15.19692993 34.16841125 C-15.22119666 30.52197916 -15.23253853 26.87570039 -15.24136353 23.22920227 C-15.2516861 22.09569839 -15.26200867 20.96219452 -15.27264404 19.79434204 C-15.2727951 18.73361984 -15.27294617 17.67289764 -15.27310181 16.58003235 C-15.27754303 15.6495961 -15.28198425 14.71915985 -15.28656006 13.76052856 C-14.95746292 10.18457771 -14.0770323 7.25659652 -11.60855103 4.60029602 C-7.34919106 1.32058884 -5.32488851 0.02442444 0 0 Z " fill="#FCFCFC" transform="translate(179.04605102539063,4.8528289794921875)"/>
<path d="M0 0 C1.60229965 -0.01073296 1.60229965 -0.01073296 3.23696899 -0.02168274 C4.41410461 -0.02437164 5.59124023 -0.02706055 6.80404663 -0.02983093 C8.03994537 -0.03640213 9.27584412 -0.04297333 10.54919434 -0.04974365 C14.65546914 -0.06951776 18.76170482 -0.08115027 22.86801147 -0.09111023 C24.28250523 -0.095158 25.6969988 -0.09927492 27.11149216 -0.10346031 C33.76006894 -0.12251822 40.4086346 -0.13674537 47.05723345 -0.14507228 C54.72411266 -0.15483343 62.39070228 -0.18112073 70.0574795 -0.22157317 C75.98710991 -0.25178212 81.91665758 -0.26654585 87.84636343 -0.26985329 C91.38575989 -0.27219929 94.92484723 -0.28109955 98.46416092 -0.30631447 C102.41869499 -0.33403074 106.37285188 -0.32974941 110.32748413 -0.32279968 C111.49247437 -0.33560974 112.6574646 -0.3484198 113.85775757 -0.36161804 C121.86911736 -0.3103523 127.13568118 0.91632904 133.39144897 6.20967102 C135.95251078 9.38538766 136.08058365 12.12997036 136.09197998 16.06118774 C136.09743332 17.07475342 136.10288666 18.08831909 136.10850525 19.13259888 C136.10954758 20.24382614 136.1105899 21.35505341 136.11166382 22.49995422 C136.11674454 23.67093658 136.12182526 24.84191895 136.12705994 26.04838562 C136.14057328 29.26131748 136.14995537 32.47423577 136.15847731 35.68718362 C136.1692013 39.05165592 136.18778162 42.41608057 136.20629883 45.78051758 C136.26818845 57.24115666 136.32221484 68.70179082 136.35531616 80.16255188 C136.3736782 86.49233683 136.40263369 92.82198161 136.44332087 99.15166348 C136.46436446 102.49978482 136.47815696 105.8475686 136.48212814 109.1957798 C136.48702962 112.93279723 136.51016939 116.66929263 136.53744507 120.40620422 C136.53443893 121.5113588 136.5314328 122.61651337 136.52833557 123.75515747 C136.58831989 129.2816652 136.76017286 133.41079891 139.95394897 138.14717102 C141.88977494 139.85588902 141.88977494 139.85588902 144.14144897 141.08467102 C157.76514439 149.62159704 163.57901395 160.40826324 168.95394897 175.14717102 C169.4102771 176.36920227 169.86660522 177.59123352 170.33676147 178.85029602 C178.83399889 202.76467676 178.6745009 226.92338797 174.39730835 251.75361633 C169.82571997 279.07429924 175.891227 296.55308806 190.95394897 319.14717102 C190.95394897 320.46717102 190.95394897 321.78717102 190.95394897 323.14717102 C188.97394897 323.47717102 186.99394897 323.80717102 184.95394897 324.14717102 C169.20041653 301.3508829 161.16327796 281.11282369 165.98031616 252.85346985 C166.36562805 250.84431087 166.78174974 248.84112965 167.20004272 246.83857727 C171.4833945 225.86568903 169.36537979 205.38633829 162.95394897 185.14717102 C162.45653198 183.57153381 162.45653198 183.57153381 161.94906616 181.96406555 C157.41434033 165.94219124 157.41434033 165.94219124 147.57894897 152.95967102 C146.88930054 152.37701477 146.1996521 151.79435852 145.48910522 151.19404602 C141.75500173 148.17914582 137.9777827 145.21960937 134.17489624 142.29194641 C130.57791014 139.50407652 127.27503595 136.58322096 124.01644897 133.39717102 C121.32010678 130.85876398 121.32010678 130.85876398 117.88754272 129.84638977 C115.610126 130.12704112 113.62742628 130.47369372 111.95394897 132.14717102 C110.70806183 151.14694998 117.85313299 160.98921632 129.95394897 175.14717102 C130.61394897 175.80717102 131.27394897 176.46717102 131.95394897 177.14717102 C133.52840784 190.64253275 125.73115058 202.76343405 119.58285522 214.22529602 C112.29869936 227.82095397 106.65596658 240.65437017 103.49716187 255.81806946 C102.95394897 258.14717102 102.95394897 258.14717102 101.90536499 261.34565735 C100.7892977 265.80505785 100.70088395 269.79136749 100.75863647 274.36201477 C100.76146637 275.21775589 100.76429626 276.07349701 100.76721191 276.95516968 C100.77832963 279.66515093 100.80341815 282.37479111 100.82894897 285.08467102 C100.83898966 286.93167143 100.8481136 288.77867706 100.85629272 290.62568665 C100.87824134 295.13297779 100.91271243 299.64001675 100.95394897 304.14717102 C98.57894897 304.77217102 98.57894897 304.77217102 95.95394897 305.14717102 C90.0191177 299.21233975 93.31852276 288.53236812 92.95394897 280.14717102 C70.51394897 280.14717102 48.07394897 280.14717102 24.95394897 280.14717102 C36.38279381 301.10005321 50.39507572 313.71476268 72.82894897 321.70967102 C86.25923069 326.61624526 99.37324048 338.36663104 105.95394897 351.14717102 C106.13754272 353.94404602 106.13754272 353.94404602 105.95394897 356.14717102 C104.63394897 356.80717102 103.31394897 357.46717102 101.95394897 358.14717102 C101.58632446 357.71896057 101.21869995 357.29075012 100.8399353 356.8495636 C99.15083889 354.88447971 97.45867069 352.92206405 95.76644897 350.95967102 C95.18830444 350.28613586 94.61015991 349.61260071 94.01449585 348.9186554 C85.12077912 338.61802303 76.78547225 332.19589507 64.26644897 326.83467102 C43.92416245 317.78698586 29.664458 305.73809767 18.87875366 286.19941711 C17.06448029 282.55723364 17.06448029 282.55723364 13.95394897 280.14717102 C12.51440264 280.06596584 11.07156239 280.038883 9.62973022 280.04170227 C8.76541382 280.02687805 7.90109741 280.01205383 7.0105896 279.9967804 C5.20085174 279.97230707 3.39074751 279.96667663 1.5809021 279.9811554 C-4.18002889 279.84043687 -7.4200772 278.8466222 -11.68203735 274.91938782 C-15.02862882 270.5712748 -15.24799069 266.70866531 -15.07339478 261.34248352 C-15.06243774 260.03666321 -15.05148071 258.7308429 -15.04019165 257.38545227 C-15.01982806 255.32701244 -14.98366077 253.27483218 -14.89883423 251.2179718 C-14.7258896 246.66903701 -14.7765338 242.53398616 -16.04605103 238.14717102 C-19.32140919 234.84736989 -22.86959653 233.09280309 -27.04605103 231.14717102 C-33.36080193 226.74176668 -40.08372694 220.24748865 -41.55386353 212.45576477 C-41.64293533 208.18668042 -41.49347705 203.76003801 -39.04605103 200.14717102 C-36.48355103 199.27217102 -36.48355103 199.27217102 -34.04605103 199.14717102 C-33.71605103 199.47717102 -33.38605103 199.80717102 -33.04605103 200.14717102 C-33.11823853 201.00181946 -33.19042603 201.8564679 -33.26480103 202.73701477 C-33.68428165 207.72999938 -33.94824219 211.60653832 -31.36245728 216.02217102 C-24.96509576 223.29542779 -16.47028542 230.58364169 -6.48355103 231.45967102 C-3.12278679 231.3477379 -3.12278679 231.3477379 -0.60855103 230.02217102 C1.15620828 228.19010014 1.15620828 228.19010014 1.57894897 225.45967102 C0.49797596 219.73051404 -3.25857119 216.03979673 -7.17105103 211.89717102 C-10.05299884 210.14294192 -12.51933397 209.31576665 -15.73355103 208.33467102 C-27.26083587 204.67139891 -34.92505119 197.41440604 -41.24136353 187.21748352 C-42.97359544 182.76077035 -42.5634605 177.82940738 -42.04605103 173.14717102 C-40.35855103 169.89717102 -40.35855103 169.89717102 -38.04605103 168.14717102 C-35.35855103 167.77217102 -35.35855103 167.77217102 -33.04605103 168.14717102 C-32.71605103 168.47717102 -32.38605103 168.80717102 -32.04605103 169.14717102 C-32.24465229 171.35846273 -32.48047356 173.56644999 -32.73355103 175.77217102 C-33.21848509 182.24014297 -33.21046792 185.17018498 -29.04605103 190.14717102 C-23.22706662 196.28069512 -16.81294855 200.75644172 -8.23355103 201.45967102 C-4.53083185 201.20178713 -4.53083185 201.20178713 -1.04605103 200.14717102 C1.54879899 196.773866 1.31402803 193.25207226 0.95394897 189.14717102 C-1.07275966 183.95373014 -5.36223225 180.89462166 -10.04605103 178.14717102 C-13.28885603 176.80588472 -16.57000002 175.61562612 -19.86636353 174.41279602 C-29.99307477 170.38201661 -38.90632473 162.36045167 -43.42495728 152.31904602 C-44.99978107 146.812115 -44.71730582 141.32874911 -43.04605103 135.89717102 C-39.48872531 131.00584816 -34.751613 126.39448606 -29.04605103 124.14717102 C-26.68667603 123.95185852 -26.68667603 123.95185852 -24.29605103 124.02217102 C-23.49683228 124.0402179 -22.69761353 124.05826477 -21.87417603 124.07685852 C-21.27089478 124.10006165 -20.66761353 124.12326477 -20.04605103 124.14717102 C-19.42105103 126.52217102 -19.42105103 126.52217102 -19.04605103 129.14717102 C-21.98284493 132.08396493 -25.52145823 132.7682437 -29.41714478 134.04951477 C-32.02024293 135.13639528 -33.32942251 135.94480839 -35.04605103 138.14717102 C-36.44991322 142.35875761 -37.01014145 146.03897328 -35.10464478 150.20576477 C-30.23193543 158.2862138 -23.12047502 165.14460426 -14.04605103 168.14717102 C-8.69065342 168.75962341 -3.76769106 168.90866565 1.20394897 166.70967102 C3.39827435 163.49655172 3.79083362 161.36938314 3.56332397 157.51435852 C2.40000867 152.99532599 -0.7025623 150.23926962 -4.04605103 147.14717102 C-4.75245728 146.49232727 -5.45886353 145.83748352 -6.18667603 145.16279602 C-9.04556671 142.60038289 -11.84774062 140.27937796 -15.04605103 138.14717102 C-15.39907837 135.52095032 -15.39907837 135.52095032 -15.38198853 132.22138977 C-15.40132446 130.43764954 -15.40132446 130.43764954 -15.42105103 128.61787415 C-15.42105103 126.10744532 -15.41331157 123.59700389 -15.39761353 121.08662415 C-15.31626086 114.14023045 -15.31626086 114.14023045 -18.25308228 108.09638977 C-19.17476196 107.45314758 -20.09644165 106.8099054 -21.04605103 106.14717102 C-21.90843384 105.34537415 -22.77081665 104.54357727 -23.65933228 103.71748352 C-24.55007446 102.9105304 -25.44081665 102.10357727 -26.35855103 101.27217102 C-27.3150354 100.40463196 -28.27151978 99.5370929 -29.25698853 98.64326477 C-31.64149726 96.50922965 -34.05251007 94.41516861 -36.48355103 92.33467102 C-40.42405065 88.9099014 -45.506817 84.43900667 -46.38198853 79.09638977 C-46.47728374 73.57879696 -45.77473039 70.4805011 -42.04605103 66.14717102 C-37.65129891 62.27560368 -35.24558277 60.98564492 -29.42105103 60.89717102 C-28.4181604 60.87138977 -27.41526978 60.84560852 -26.38198853 60.81904602 C-23.4462263 61.10780952 -21.53640492 61.61455385 -18.83755493 62.66767883 C-18.12515656 62.94315552 -17.41275818 63.2186322 -16.67877197 63.50245667 C-16.13997406 63.7152124 -15.60117615 63.92796814 -15.04605103 64.14717102 C-15.05049225 63.49428604 -15.05493347 62.84140106 -15.05950928 62.16873169 C-15.10376604 55.37177215 -15.13392729 48.57485356 -15.15591431 41.77778625 C-15.16597003 39.24131101 -15.17961637 36.70484734 -15.19692993 34.16841125 C-15.22119666 30.52197916 -15.23253853 26.87570039 -15.24136353 23.22920227 C-15.2516861 22.09569839 -15.26200867 20.96219452 -15.27264404 19.79434204 C-15.2727951 18.73361984 -15.27294617 17.67289764 -15.27310181 16.58003235 C-15.27754303 15.6495961 -15.28198425 14.71915985 -15.28656006 13.76052856 C-14.95746292 10.18457771 -14.0770323 7.25659652 -11.60855103 4.60029602 C-7.34919106 1.32058884 -5.32488851 0.02442444 0 0 Z M-8.04605103 31.14717102 C-8.12855103 47.87404602 -8.21105103 64.60092102 -8.29605103 81.83467102 C-8.33246704 87.11426819 -8.36888306 92.39386536 -8.40640259 97.83345032 C-8.41978115 102.57017758 -8.41978115 102.57017758 -8.42782593 107.30691528 C-8.43396426 109.41506324 -8.44802444 111.52319723 -8.46835327 113.6312561 C-8.49762332 116.82650615 -8.50167546 120.02089883 -8.50015259 123.21626282 C-8.51454502 124.15384524 -8.52893745 125.09142767 -8.54376602 126.05742168 C-8.51698706 130.25328906 -8.43815132 132.52123189 -6.16781616 136.14553833 C-3.91662189 138.26927199 -1.605942 140.13184249 0.89144897 141.95967102 C6.12316037 146.09403675 10.13174539 149.85800899 11.42269897 156.59248352 C11.76223456 162.14389035 10.60169476 165.98910912 7.39926147 170.51826477 C5.51275212 172.6444118 3.53100864 173.9690866 0.95394897 175.14717102 C2.25865052 177.92118598 3.76248641 180.25054187 5.57894897 182.70967102 C8.68609208 187.69037504 9.15574953 192.42825804 7.95394897 198.14717102 C6.00743195 201.85087818 3.75986991 205.24421055 -0.04605103 207.14717102 C1.30803657 210.13799557 2.90017144 212.27301885 5.07894897 214.70967102 C8.33909557 218.95822392 8.57030437 222.38391945 8.45785522 227.63154602 C7.88196164 230.50654964 6.78411791 231.9021638 4.95394897 234.14717102 C4.95394897 234.80717102 4.95394897 235.46717102 4.95394897 236.14717102 C0.62830693 237.72972299 -3.47477203 238.59861754 -8.04605103 239.14717102 C-8.04605103 240.46717102 -8.04605103 241.78717102 -8.04605103 243.14717102 C5.70541929 243.28606946 19.45672328 243.39274107 33.20875168 243.45804405 C39.5941212 243.48938324 45.97901153 243.53190507 52.36410522 243.59980774 C58.52383394 243.66490528 64.68310118 243.70085756 70.84314728 243.71643448 C73.19559243 243.72753789 75.54801176 243.74922006 77.90026093 243.78155136 C81.19052598 243.82498502 84.47887399 243.83111033 87.76937866 243.82832336 C88.74617584 243.84989502 89.72297302 243.87146667 90.72937012 243.89369202 C93.27878619 243.87026036 95.48907591 243.79894144 97.95394897 243.14717102 C100.84418178 239.89155026 102.36308731 236.58470193 103.82894897 232.52217102 C105.28059813 228.71159198 106.94282834 225.13723557 108.82894897 221.52217102 C111.60609682 216.10112231 113.77168882 210.58374249 115.77377319 204.84199524 C117.40006474 200.27245072 119.48238447 196.32238595 121.95394897 192.14717102 C123.82798342 187.64948835 124.77506054 183.99172923 123.95394897 179.14717102 C122.16547802 176.77434817 120.19688094 174.69885637 118.12582397 172.56904602 C115.23163622 169.34171435 113.2470489 165.81076502 111.18051147 162.01826477 C110.77574585 161.40080383 110.37098022 160.7833429 109.95394897 160.14717102 C109.29394897 160.14717102 108.63394897 160.14717102 107.95394897 160.14717102 C107.83019897 159.46654602 107.70644897 158.78592102 107.57894897 158.08467102 C107.00558028 155.09162756 107.00558028 155.09162756 105.89144897 152.08467102 C103.8335771 145.06640649 104.23227386 136.17734441 105.95394897 129.14717102 C107.7773395 126.44149476 109.02852334 124.60988384 111.95394897 123.14717102 C117.48382779 122.58223252 121.34158809 122.79272674 125.95394897 126.14717102 C126.61394897 126.14717102 127.27394897 126.14717102 127.95394897 126.14717102 C127.95394897 94.79717102 127.95394897 63.44717102 127.95394897 31.14717102 C83.07394897 31.14717102 38.19394897 31.14717102 -8.04605103 31.14717102 Z " fill="#2B2829" transform="translate(179.04605102539063,4.8528289794921875)"/>
<path d="M0 0 C0.99 0.495 0.99 0.495 2 1 C2.33 1.99 2.66 2.98 3 4 C5.31 4.33 7.62 4.66 10 5 C10 5.33 10 5.66 10 6 C8.2984375 6.4640625 8.2984375 6.4640625 6.5625 6.9375 C3.21224901 7.62924531 3.21224901 7.62924531 2 9 C0.75411285 27.99977896 7.89918402 37.8420453 20 52 C20.66 52.66 21.32 53.32 22 54 C23.57445887 67.49536173 15.77720161 79.61626303 9.62890625 91.078125 C2.34475038 104.67378294 -3.29798239 117.50719915 -6.45678711 132.67089844 C-7 135 -7 135 -8.04858398 138.19848633 C-9.16465127 142.65788683 -9.25306502 146.64419647 -9.1953125 151.21484375 C-9.1924826 152.07058487 -9.18965271 152.92632599 -9.18673706 153.80799866 C-9.17561935 156.51797991 -9.15053082 159.22762009 -9.125 161.9375 C-9.11495931 163.78450041 -9.10583537 165.63150604 -9.09765625 167.47851562 C-9.07570763 171.98580677 -9.04123654 176.49284573 -9 181 C-11.375 181.625 -11.375 181.625 -14 182 C-19.93483127 176.06516873 -16.63542621 165.3851971 -17 157 C-39.44 157 -61.88 157 -85 157 C-73.57115517 177.95288219 -59.55887325 190.56759165 -37.125 198.5625 C-23.69471828 203.46907424 -10.5807085 215.21946002 -4 228 C-3.81640625 230.796875 -3.81640625 230.796875 -4 233 C-5.98 233.99 -5.98 233.99 -8 235 C-8.36762451 234.57178955 -8.73524902 234.1435791 -9.11401367 233.70239258 C-10.80311009 231.73730869 -12.49527829 229.77489303 -14.1875 227.8125 C-14.76564453 227.13896484 -15.34378906 226.46542969 -15.93945312 225.77148438 C-24.83316985 215.470852 -33.16847673 209.04872405 -45.6875 203.6875 C-66.02978652 194.63981484 -80.28949098 182.59092665 -91.07519531 163.05224609 C-92.88946868 159.41006262 -92.88946868 159.41006262 -96 157 C-97.43954634 156.91879482 -98.88238659 156.89171198 -100.32421875 156.89453125 C-101.18853516 156.87970703 -102.05285156 156.86488281 -102.94335938 156.84960938 C-104.75309723 156.82513605 -106.56320146 156.81950561 -108.37304688 156.83398438 C-114.13397787 156.69326585 -117.37402618 155.69945118 -121.63598633 151.7722168 C-124.98257779 147.42410378 -125.20193967 143.56149429 -125.02734375 138.1953125 C-125.01638672 136.88949219 -125.00542969 135.58367187 -124.99414062 134.23828125 C-124.97377704 132.17984142 -124.93760975 130.12766116 -124.8527832 128.07080078 C-124.67983857 123.52186599 -124.73048278 119.38681514 -126 115 C-129.27535816 111.70019887 -132.8235455 109.94563207 -137 108 C-143.31475091 103.59459566 -150.03767592 97.10031763 -151.5078125 89.30859375 C-151.5968843 85.0395094 -151.44742603 80.61286699 -149 77 C-146.4375 76.125 -146.4375 76.125 -144 76 C-143.67 76.33 -143.34 76.66 -143 77 C-143.0721875 77.85464844 -143.144375 78.70929688 -143.21875 79.58984375 C-143.63823062 84.58282836 -143.90219116 88.4593673 -141.31640625 92.875 C-134.91904473 100.14825677 -126.4242344 107.43647067 -116.4375 108.3125 C-113.07673577 108.20056688 -113.07673577 108.20056688 -110.5625 106.875 C-108.79774069 105.04292912 -108.79774069 105.04292912 -108.375 102.3125 C-109.45597302 96.58334302 -113.21252017 92.89262571 -117.125 88.75 C-120.00694781 86.9957709 -122.47328294 86.16859563 -125.6875 85.1875 C-137.21478484 81.52422788 -144.87900017 74.26723502 -151.1953125 64.0703125 C-152.92754441 59.61359933 -152.51740948 54.68223636 -152 50 C-150.3125 46.75 -150.3125 46.75 -148 45 C-145.3125 44.625 -145.3125 44.625 -143 45 C-142.67 45.33 -142.34 45.66 -142 46 C-142.19860127 48.21129171 -142.43442253 50.41927897 -142.6875 52.625 C-143.17243407 59.09297195 -143.16441689 62.02301396 -139 67 C-133.18101559 73.1335241 -126.76689752 77.60927069 -118.1875 78.3125 C-114.48478082 78.05461611 -114.48478082 78.05461611 -111 77 C-108.40514999 73.62669498 -108.63992094 70.10490124 -109 66 C-111.02670864 60.80655912 -115.31618123 57.74745064 -120 55 C-123.242805 53.65871369 -126.523949 52.4684551 -129.8203125 51.265625 C-139.94702374 47.23484559 -148.86027371 39.21328065 -153.37890625 29.171875 C-154.95373005 23.66494398 -154.6712548 18.18157809 -153 12.75 C-149.44267428 7.85867713 -144.70556197 3.24731504 -139 1 C-136.640625 0.8046875 -136.640625 0.8046875 -134.25 0.875 C-133.45078125 0.89304688 -132.6515625 0.91109375 -131.828125 0.9296875 C-131.22484375 0.95289063 -130.6215625 0.97609375 -130 1 C-129.375 3.375 -129.375 3.375 -129 6 C-131.93679391 8.93679391 -135.47540721 9.62107268 -139.37109375 10.90234375 C-141.97419191 11.98922426 -143.28337148 12.79763737 -145 15 C-146.4038622 19.21158659 -146.96409043 22.89180226 -145.05859375 27.05859375 C-140.18588441 35.13904278 -133.074424 41.99743324 -124 45 C-118.64460239 45.61245239 -113.72164003 45.76149463 -108.75 43.5625 C-106.56017813 40.35597511 -106.17433937 38.22904326 -106.37109375 34.3828125 C-107.54811703 29.92328331 -110.73101668 27.09398421 -114 24 C-115.0011293 23.00113058 -116.00153728 22.00153492 -117 21 C-111.83204931 17.8751926 -111.83204931 17.8751926 -108.5 18.375 C-103.82860618 21.41140598 -100.13706078 25.83787602 -98 31 C-96.76041242 37.90116546 -98.27592073 42.51037626 -102.19921875 48.1875 C-104.30013761 50.30209079 -106.18955621 51.0807407 -109 52 C-108.59007812 52.53109375 -108.18015625 53.0621875 -107.7578125 53.609375 C-107.21898437 54.31578125 -106.68015625 55.0221875 -106.125 55.75 C-105.59132812 56.44609375 -105.05765625 57.1421875 -104.5078125 57.859375 C-100.61544438 63.38532767 -99.921356 68.30687571 -101 75 C-103.16373481 79.30016697 -105.36756225 82.45585408 -110 84 C-109.43410156 84.69867188 -108.86820313 85.39734375 -108.28515625 86.1171875 C-107.55167969 87.02726562 -106.81820312 87.93734375 -106.0625 88.875 C-105.33160156 89.77992188 -104.60070312 90.68484375 -103.84765625 91.6171875 C-100.12453114 96.41868077 -100.40711366 101.08783767 -101 107 C-102.8057193 110.88924158 -104.26747547 112.51165031 -107.8125 114.875 C-111.39481555 116.13934666 -114.22805741 116.22631656 -118 116 C-118 117.32 -118 118.64 -118 120 C-104.23094753 119.98619961 -90.46224188 119.94366981 -76.69338512 119.86790943 C-70.30034351 119.83357583 -63.90754249 119.80851951 -57.5144043 119.80444336 C-51.34800681 119.80017414 -45.18215263 119.77182538 -39.01592445 119.72656822 C-36.65996779 119.71354918 -34.30394625 119.70930101 -31.94795799 119.71384621 C-28.65505211 119.71872071 -25.3637536 119.69279831 -22.07104492 119.65942383 C-20.60045624 119.67236229 -20.60045624 119.67236229 -19.10015869 119.68556213 C-16.63015467 119.64342028 -14.40292514 119.57234368 -12 119 C-9.80785944 116.74847125 -9.80785944 116.74847125 -9 114 C-8.68417969 113.25621094 -8.36835938 112.51242188 -8.04296875 111.74609375 C-7.76066406 110.98425781 -7.47835937 110.22242188 -7.1875 109.4375 C-5.70671179 105.61447645 -4.01931686 102.01030782 -2.125 98.375 C0.65214785 92.95395129 2.81773984 87.43657146 4.81982422 81.69482422 C6.44611576 77.1252797 8.5284355 73.17521493 11 69 C12.87403445 64.50231733 13.82111156 60.84455821 13 56 C11.19428246 53.57780262 9.20959523 51.45575687 7.11328125 49.28125 C0 41.6025878 0 41.6025878 0 37 C-0.66 37 -1.32 37 -2 37 C-5.26837706 28.77069347 -6.61562037 21.83671733 -6 13 C-5.938125 11.72125 -5.87625 10.4425 -5.8125 9.125 C-4.73866809 4.99487726 -2.92287856 3.07276977 0 0 Z " fill="#2F2B2C" transform="translate(289,128)"/>
<path d="M0 0 C2.31 0 4.62 0 7 0 C7 3.3 7 6.6 7 10 C7.99 10 8.98 10 10 10 C10 7.69 10 5.38 10 3 C11.98 3 13.96 3 16 3 C16 2.01 16 1.02 16 0 C17.32 0 18.64 0 20 0 C20 0.99 20 1.98 20 3 C20.99 3 21.98 3 23 3 C23 4.32 23 5.64 23 7 C24.98 7 26.96 7 29 7 C29 7.99 29 8.98 29 10 C27.35 10 25.7 10 24 10 C24.495 12.97 24.495 12.97 25 16 C25.66 16 26.32 16 27 16 C27 15.01 27 14.02 27 13 C28.32 13 29.64 13 31 13 C32.36952673 15.73905345 32.12621361 17.97087332 32 21 C31.67 21.66 31.34 22.32 31 23 C29.35 23 27.7 23 26 23 C25.505 22.01 25.505 22.01 25 21 C24.67 23.64 24.34 26.28 24 29 C24.66 29 25.32 29 26 29 C26 28.01 26 27.02 26 26 C28.31 26 30.62 26 33 26 C33 28.31 33 30.62 33 33 C33.99 33 34.98 33 36 33 C36 31.68 36 30.36 36 29 C36.99 29 37.98 29 39 29 C39 28.01 39 27.02 39 26 C40.32 26 41.64 26 43 26 C43 26.99 43 27.98 43 29 C43.99 29 44.98 29 46 29 C46 28.01 46 27.02 46 26 C49.3 26 52.6 26 56 26 C56 27.32 56 28.64 56 30 C55.01 30 54.02 30 53 30 C53 30.99 53 31.98 53 33 C53.99 33 54.98 33 56 33 C56 36.3 56 39.6 56 43 C55.01 43 54.02 43 53 43 C53 41.68 53 40.36 53 39 C49.7 39 46.4 39 43 39 C43 37.02 43 35.04 43 33 C42.01 33 41.02 33 40 33 C40 35.31 40 37.62 40 40 C39.01 40 38.02 40 37 40 C37 40.99 37 41.98 37 43 C35.68 43 34.36 43 33 43 C33 43.99 33 44.98 33 46 C33.99 46 34.98 46 36 46 C36 46.99 36 47.98 36 49 C35.01 49 34.02 49 33 49 C33 50.32 33 51.64 33 53 C34.32 53 35.64 53 37 53 C37 52.01 37 51.02 37 50 C37.66 50 38.32 50 39 50 C39 50.99 39 51.98 39 53 C40.32 53 41.64 53 43 53 C43 58.28 43 63.56 43 69 C40.69 69 38.38 69 36 69 C36 70.32 36 71.64 36 73 C35.34 73 34.68 73 34 73 C34 73.99 34 74.98 34 76 C32.35 76 30.7 76 29 76 C29 74.68 29 73.36 29 72 C30.32 72 31.64 72 33 72 C33 71.01 33 70.02 33 69 C30.69 69 28.38 69 26 69 C26 70.98 26 72.96 26 75 C25.34 75 24.68 75 24 75 C24 74.01 24 73.02 24 72 C22.35 72 20.7 72 19 72 C19 72.99 19 73.98 19 75 C18.34 75 17.68 75 17 75 C17 73.02 17 71.04 17 69 C18.98 69 20.96 69 23 69 C23 66.69 23 64.38 23 62 C23.99 62 24.98 62 26 62 C26 58.04 26 54.08 26 50 C25.34 50 24.68 50 24 50 C24 50.99 24 51.98 24 53 C22.68 53 21.36 53 20 53 C20 53.99 20 54.98 20 56 C18.68 56 17.36 56 16 56 C16 56.99 16 57.98 16 59 C15.01 59 14.02 59 13 59 C13 60.32 13 61.64 13 63 C14.98 63 16.96 63 19 63 C19 63.99 19 64.98 19 66 C18.01 66 17.02 66 16 66 C16 66.99 16 67.98 16 69 C15.01 69 14.02 69 13 69 C13 73.29 13 77.58 13 82 C12.01 82 11.02 82 10 82 C10 81.01 10 80.02 10 79 C9.01 79 8.02 79 7 79 C7 79.99 7 80.98 7 82 C4.69 82 2.38 82 0 82 C0 81.01 0 80.02 0 79 C0.99 79 1.98 79 3 79 C3 77.02 3 75.04 3 73 C2.01 73 1.02 73 0 73 C0 67.39 0 61.78 0 56 C0.99 56 1.98 56 3 56 C3 54.68 3 53.36 3 52 C4.32 52 5.64 52 7 52 C7 53.32 7 54.64 7 56 C6.01 56 5.02 56 4 56 C4 56.99 4 57.98 4 59 C4.99 59 5.98 59 7 59 C7 59.99 7 60.98 7 62 C7.99 62 8.98 62 10 62 C10 60.02 10 58.04 10 56 C10.99 56 11.98 56 13 56 C13 55.01 13 54.02 13 53 C11.68 53 10.36 53 9 53 C9 52.01 9 51.02 9 50 C6.36 50 3.72 50 1 50 C1 50.99 1 51.98 1 53 C-0.32 53 -1.64 53 -3 53 C-3 53.99 -3 54.98 -3 56 C-4.32 56 -5.64 56 -7 56 C-6.67 54.68 -6.34 53.36 -6 52 C-5.34 52 -4.68 52 -4 52 C-4 51.34 -4 50.68 -4 50 C-5.65 50 -7.3 50 -9 50 C-9 50.66 -9 51.32 -9 52 C-10.32 52 -11.64 52 -13 52 C-13 51.01 -13 50.02 -13 49 C-16.3 49 -19.6 49 -23 49 C-23 51.31 -23 53.62 -23 56 C-23.99 56 -24.98 56 -26 56 C-26 51.71 -26 47.42 -26 43 C-25.01 43 -24.02 43 -23 43 C-23 39.7 -23 36.4 -23 33 C-20.69 33 -18.38 33 -16 33 C-16 30.69 -16 28.38 -16 26 C-9.73 26 -3.46 26 3 26 C3 25.01 3 24.02 3 23 C2.01 23 1.02 23 0 23 C0 21.68 0 20.36 0 19 C0.99 19 1.98 19 3 19 C3 18.34 3 17.68 3 17 C2.01 17 1.02 17 0 17 C0 15.68 0 14.36 0 13 C1.32 13 2.64 13 4 13 C4 13.99 4 14.98 4 16 C4.99 16 5.98 16 7 16 C7 17.32 7 18.64 7 20 C7.99 20 8.98 20 10 20 C10 21.98 10 23.96 10 26 C10.99 26 11.98 26 13 26 C13 26.99 13 27.98 13 29 C12.01 29 11.02 29 10 29 C10 30.32 10 31.64 10 33 C10.99 33 11.98 33 13 33 C13 33.99 13 34.98 13 36 C13.99 36 14.98 36 16 36 C16 35.01 16 34.02 16 33 C15.34 33 14.68 33 14 33 C14 32.01 14 31.02 14 30 C15.98 30 17.96 30 20 30 C20 28.68 20 27.36 20 26 C18.68 26 17.36 26 16 26 C16 25.01 16 24.02 16 23 C15.01 23 14.02 23 13 23 C13 21.68 13 20.36 13 19 C13.99 19 14.98 19 16 19 C16 17.02 16 15.04 16 13 C12.7 13 9.4 13 6 13 C6 12.01 6 11.02 6 10 C4.02 10 2.04 10 0 10 C0 6.7 0 3.4 0 0 Z " fill="#353233" transform="translate(225,50)"/>
<path d="M0 0 C34.65 0 69.3 0 105 0 C105 2.97 105 5.94 105 9 C104.34 9 103.68 9 103 9 C102.67 13.29 102.34 17.58 102 22 C89.42195256 22.11576726 76.84403152 22.20465137 64.26556015 22.25906086 C58.42505854 22.28517265 52.58492098 22.32060035 46.74462891 22.37719727 C41.11010401 22.43145944 35.47592962 22.46140861 29.84116364 22.47438622 C27.68969452 22.48363643 25.53824494 22.50169976 23.38692474 22.52865028 C20.37699181 22.56486291 17.36851358 22.56994852 14.35839844 22.56762695 C13.4657579 22.58560333 12.57311737 22.60357971 11.65342712 22.62210083 C5.59798014 22.57144673 5.59798014 22.57144673 2.4776001 19.58952332 C-1.85790812 11.99145964 0 13.40329492 0 0 Z " fill="#F9F9F9" transform="translate(170,255)"/>
<path d="M0 0 C1.03887863 -0.00426498 2.07775726 -0.00852997 3.14811707 -0.01292419 C4.29256287 -0.01247101 5.43700867 -0.01201782 6.61613464 -0.0115509 C8.41868965 -0.01658882 8.41868965 -0.01658882 10.25765991 -0.02172852 C13.55944405 -0.02961689 16.86116531 -0.03290707 20.16295457 -0.0335443 C22.91881545 -0.03449307 25.67467027 -0.03817114 28.43052882 -0.0417164 C34.93380679 -0.04986518 41.43707091 -0.05230031 47.94035339 -0.05158997 C54.6477129 -0.05098957 61.35499188 -0.06153267 68.06233102 -0.07733363 C73.82036747 -0.09041466 79.57837763 -0.0957736 85.33642882 -0.09513456 C88.77558227 -0.09487966 92.21466423 -0.09772585 95.65380287 -0.10831261 C99.49153911 -0.1198031 103.32916525 -0.11524329 107.16691589 -0.10920715 C108.87447556 -0.11763641 108.87447556 -0.11763641 110.61653137 -0.12623596 C112.18753853 -0.11994423 112.18753853 -0.11994423 113.7902832 -0.11352539 C114.69749524 -0.11407016 115.60470728 -0.11461493 116.53941059 -0.1151762 C120.51402878 0.27333849 123.25678259 1.3048783 126.08561707 4.13371277 C126.08561707 8.09371277 126.08561707 12.05371277 126.08561707 16.13371277 C81.20561707 16.13371277 36.32561707 16.13371277 -9.91438293 16.13371277 C-9.91438293 4.71063585 -9.91438293 4.71063585 -6.91438293 1.13371277 C-4.43164324 -0.10765708 -2.77809143 0.00513823 0 0 Z " fill="#FCFBFB" transform="translate(180.9143829345703,11.866287231445313)"/>
<path d="M0 0 C7.9730746 3.45673605 11.50008584 11.48527427 14.625 19.125 C15.78814121 22.06975513 16.90261047 25.03019798 18 28 C18.24524414 28.64807617 18.49048828 29.29615234 18.74316406 29.96386719 C27.89086664 54.3534998 27.8277519 79.15389291 23.44335938 104.60644531 C18.871771 131.92712822 24.93727803 149.40591704 40 172 C40 173.32 40 174.64 40 176 C38.02 176.33 36.04 176.66 34 177 C18.24646756 154.20371188 10.20932898 133.96565267 15.02636719 105.70629883 C15.41167908 103.69713985 15.82780077 101.69395863 16.24609375 99.69140625 C20.52944553 78.71851801 18.41143082 58.23916727 12 38 C11.66838867 36.9495752 11.33677734 35.89915039 10.99511719 34.81689453 C7.2406776 23.12991615 3.85587301 13.53927437 -4 4 C-3.34 4 -2.68 4 -2 4 C-1.34 2.68 -0.68 1.36 0 0 Z " fill="#322F30" transform="translate(330,152)"/>
<path d="M0 0 C1.48168945 1.11254883 1.48168945 1.11254883 3 3 C3.34057617 5.8190918 3.34057617 5.8190918 3.29296875 9.19921875 C3.28330078 10.40771484 3.27363281 11.61621094 3.26367188 12.86132812 C3.23853516 14.12396484 3.21339844 15.38660156 3.1875 16.6875 C3.16719727 18.59885742 3.16719727 18.59885742 3.14648438 20.54882812 C3.11108199 23.69964057 3.0616979 26.84961045 3 30 C3.58950439 30.26876953 4.17900879 30.53753906 4.78637695 30.81445312 C7.00682135 32.0036533 8.58136731 33.25624683 10.41796875 34.96875 C11.03220703 35.53980469 11.64644531 36.11085937 12.27929688 36.69921875 C12.90900391 37.29347656 13.53871094 37.88773438 14.1875 38.5 C14.82880859 39.09425781 15.47011719 39.68851563 16.13085938 40.30078125 C22.13850039 45.92144645 22.13850039 45.92144645 22.4375 51.3125 C22.35900557 55.05608073 22.0814448 55.88914458 19.75 59.0625 C15.01345641 62.2686038 9.43729934 61.86176065 4 61 C-5.97050538 57.49722218 -12.97803898 51.07919491 -18.15625 41.96484375 C-19.48058577 38.88085815 -19.29040257 36.31058931 -19 33 C-17.07836823 28.40943522 -14.27516667 26.41990566 -10 24 C-7.92692162 23.2008804 -5.85526274 22.47034361 -3.734375 21.80859375 C-1.63227048 21.01144808 -1.63227048 21.01144808 0 18 C0.27401018 15.97078331 0.27401018 15.97078331 0.1953125 13.76953125 C0.18886719 12.96708984 0.18242187 12.16464844 0.17578125 11.33789062 C0.15902344 10.50451172 0.14226562 9.67113281 0.125 8.8125 C0.11597656 7.96751953 0.10695312 7.12253906 0.09765625 6.25195312 C0.07410703 4.16784757 0.03823647 2.08388783 0 0 Z " fill="#F7F7F7" transform="translate(161,113)"/>
<path d="M0 0 C0.62003906 0.43570313 1.24007812 0.87140625 1.87890625 1.3203125 C7.33125646 4.98695849 12.61953678 7.78786573 18.75 10.0625 C25.72077619 12.68274554 30.31794748 15.62580489 34.9375 21.4375 C36.381205 24.91937676 36.5335264 27.26531518 36 31 C32.98899645 34.64489903 30.81610251 36.72363658 26.125 37.4375 C18.69785196 37.31319627 11.16792509 32.48611649 5.9375 27.5 C2.34058931 23.49953347 0.14800759 20.03510439 -0.25 14.5625 C-0.00013582 11.00193549 0.42496425 7.52209398 1 4 C0.01 3.34 -0.98 2.68 -2 2 C-1.34 2 -0.68 2 0 2 C0 1.34 0 0.68 0 0 Z " fill="#F8F7F8" transform="translate(145,170)"/>
<path d="M0 0 C0.63164062 0.44730469 1.26328125 0.89460937 1.9140625 1.35546875 C7.22098825 4.94184941 12.13469663 7.54231723 18.25 9.5 C24.37759919 11.5402959 28.1350448 13.83479752 32 19 C32.639375 19.845625 33.27875 20.69125 33.9375 21.5625 C35.29974746 24.68765593 35.57379953 26.62892777 35 30 C32.46690984 32.9168917 30.71563903 33.85395122 26.9375 34.625 C15.91694845 32.8757061 8.11214721 26.2313895 1 18 C-1.47599533 14.286007 -1.23739325 12.29282091 -1.1875 7.875 C-1.18105469 6.61429688 -1.17460937 5.35359375 -1.16796875 4.0546875 C-1 1 -1 1 0 0 Z " fill="#F7F7F7" transform="translate(146,203)"/>
<path d="M0 0 C1.32 0 2.64 0 4 0 C4 0.99 4 1.98 4 3 C4.99 3 5.98 3 7 3 C7 4.32 7 5.64 7 7 C7.99 7 8.98 7 10 7 C10 8.98 10 10.96 10 13 C10.99 13 11.98 13 13 13 C13 13.99 13 14.98 13 16 C12.01 16 11.02 16 10 16 C10 17.32 10 18.64 10 20 C10.99 20 11.98 20 13 20 C13 20.99 13 21.98 13 23 C13.99 23 14.98 23 16 23 C16 24.98 16 26.96 16 29 C15.34 29 14.68 29 14 29 C14 28.01 14 27.02 14 26 C11.36 26 8.72 26 6 26 C6 26.99 6 27.98 6 29 C5.34 29 4.68 29 4 29 C4 28.01 4 27.02 4 26 C3.01 26 2.02 26 1 26 C1 24.02 1 22.04 1 20 C-0.32 20 -1.64 20 -3 20 C-3 19.01 -3 18.02 -3 17 C-6.3 17 -9.6 17 -13 17 C-13 18.98 -13 20.96 -13 23 C-15.31 23 -17.62 23 -20 23 C-19.67 23.99 -19.34 24.98 -19 26 C-16.03 26.33 -13.06 26.66 -10 27 C-10 28.98 -10 30.96 -10 33 C-1.42 33 7.16 33 16 33 C16 33.99 16 34.98 16 36 C15.01 36 14.02 36 13 36 C13 36.99 13 37.98 13 39 C12.01 39 11.02 39 10 39 C10 38.01 10 37.02 10 36 C6.7 36 3.4 36 0 36 C0 36.99 0 37.98 0 39 C-0.99 39 -1.98 39 -3 39 C-3 38.01 -3 37.02 -3 36 C-5.31 36 -7.62 36 -10 36 C-10 36.99 -10 37.98 -10 39 C-10.99 39 -11.98 39 -13 39 C-13 38.01 -13 37.02 -13 36 C-16.3 36 -19.6 36 -23 36 C-23 38.31 -23 40.62 -23 43 C-23.99 43 -24.98 43 -26 43 C-26 38.71 -26 34.42 -26 30 C-25.01 30 -24.02 30 -23 30 C-23 26.7 -23 23.4 -23 20 C-20.69 20 -18.38 20 -16 20 C-16 17.69 -16 15.38 -16 13 C-9.73 13 -3.46 13 3 13 C3 12.01 3 11.02 3 10 C2.01 10 1.02 10 0 10 C0 8.68 0 7.36 0 6 C0.99 6 1.98 6 3 6 C3 5.34 3 4.68 3 4 C2.01 4 1.02 4 0 4 C0 2.68 0 1.36 0 0 Z " fill="#3D393A" transform="translate(225,63)"/>
<path d="M0 0 C2 3 2 3 2 6 C2.66 6 3.32 6 4 6 C4 5.01 4 4.02 4 3 C5.32 3 6.64 3 8 3 C9.36952673 5.73905345 9.12621361 7.97087332 9 11 C8.67 11.66 8.34 12.32 8 13 C6.35 13 4.7 13 3 13 C2.67 12.34 2.34 11.68 2 11 C1.67 13.64 1.34 16.28 1 19 C1.66 19 2.32 19 3 19 C3 18.01 3 17.02 3 16 C5.31 16 7.62 16 10 16 C10 18.31 10 20.62 10 23 C10.99 23 11.98 23 13 23 C13 21.68 13 20.36 13 19 C13.99 19 14.98 19 16 19 C16 18.01 16 17.02 16 16 C17.32 16 18.64 16 20 16 C20 16.99 20 17.98 20 19 C20.99 19 21.98 19 23 19 C23 18.01 23 17.02 23 16 C26.3 16 29.6 16 33 16 C33 17.32 33 18.64 33 20 C32.01 20 31.02 20 30 20 C30 20.99 30 21.98 30 23 C30.99 23 31.98 23 33 23 C33 26.3 33 29.6 33 33 C32.01 33 31.02 33 30 33 C30 31.68 30 30.36 30 29 C26.7 29 23.4 29 20 29 C20 27.02 20 25.04 20 23 C19.01 23 18.02 23 17 23 C17 25.31 17 27.62 17 30 C16.01 30 15.02 30 14 30 C14 30.99 14 31.98 14 33 C11.69 33 9.38 33 7 33 C7 31.68 7 30.36 7 29 C5.68 29 4.36 29 3 29 C3 30.32 3 31.64 3 33 C2.01 33 1.02 33 0 33 C0 34.98 0 36.96 0 39 C-1.32 39 -2.64 39 -4 39 C-4 39.99 -4 40.98 -4 42 C-5.65 42 -7.3 42 -9 42 C-9 41.34 -9 40.68 -9 40 C-8.01 40 -7.02 40 -6 40 C-6 38.68 -6 37.36 -6 36 C-5.01 36 -4.02 36 -3 36 C-3 35.01 -3 34.02 -3 33 C-3.99 33 -4.98 33 -6 33 C-6 30.69 -6 28.38 -6 26 C-5.01 26 -4.02 26 -3 26 C-3 25.01 -3 24.02 -3 23 C-2.01 23 -1.02 23 0 23 C0 23.99 0 24.98 0 26 C0.99 26 1.98 26 3 26 C3 24.02 3 22.04 3 20 C2.01 20 1.02 20 0 20 C0 13.4 0 6.8 0 0 Z " fill="#E1E1E1" transform="translate(248,60)"/>
<path d="M0 0 C7.59 0 15.18 0 23 0 C23 7.59 23 15.18 23 23 C15.41 23 7.82 23 0 23 C0 15.41 0 7.82 0 0 Z " fill="#484647" transform="translate(199,109)"/>
<path d="M0 0 C7.59 0 15.18 0 23 0 C23 7.59 23 15.18 23 23 C15.41 23 7.82 23 0 23 C0 15.41 0 7.82 0 0 Z " fill="#B5B4B4" transform="translate(199,50)"/>
<path d="M0 0 C7.59 0 15.18 0 23 0 C23 7.59 23 15.18 23 23 C15.41 23 7.82 23 0 23 C0 15.41 0 7.82 0 0 Z " fill="#C0BFBF" transform="translate(258,50)"/>
<path d="M0 0 C8.41856061 2.83712121 8.41856061 2.83712121 10 6 C10.08510205 7.9593604 10.10717656 9.92162794 10.09765625 11.8828125 C10.09443359 13.04941406 10.09121094 14.21601562 10.08789062 15.41796875 C10.07951172 16.64128906 10.07113281 17.86460938 10.0625 19.125 C10.05798828 20.35605469 10.05347656 21.58710937 10.04882812 22.85546875 C10.0370133 25.90369392 10.02054028 28.95182314 10 32 C5.85004481 31.16717101 4.17538734 29.45876818 1.25 26.375 C-2.5136277 22.48313017 -6.3537015 18.84881323 -10.50390625 15.375 C-13.07545011 13.01159677 -13.02598341 11.73150475 -13.375 8.125 C-13.31541346 4.84774032 -13.14649924 4.18312405 -11 1.5 C-7.18636565 -0.40681718 -4.13006046 -0.74825252 0 0 Z " fill="#F2F2F2" transform="translate(154,73)"/>
<path d="M0 0 C2.31 0 4.62 0 7 0 C7 3.3 7 6.6 7 10 C7.99 10 8.98 10 10 10 C10 7.69 10 5.38 10 3 C11.98 3 13.96 3 16 3 C16 2.01 16 1.02 16 0 C17.32 0 18.64 0 20 0 C20 0.99 20 1.98 20 3 C20.99 3 21.98 3 23 3 C23 4.32 23 5.64 23 7 C24.98 7 26.96 7 29 7 C29 7.99 29 8.98 29 10 C27.02 10 25.04 10 23 10 C23 16.6 23 23.2 23 30 C23.99 30 24.98 30 26 30 C26 31.98 26 33.96 26 36 C25.01 36 24.02 36 23 36 C23 35.01 23 34.02 23 33 C22.01 33 21.02 33 20 33 C20 33.99 20 34.98 20 36 C19.01 36 18.02 36 17 36 C17 35.01 17 34.02 17 33 C16.01 33 15.02 33 14 33 C14 32.01 14 31.02 14 30 C15.98 30 17.96 30 20 30 C20 28.68 20 27.36 20 26 C18.68 26 17.36 26 16 26 C16 25.01 16 24.02 16 23 C15.01 23 14.02 23 13 23 C13 21.68 13 20.36 13 19 C13.99 19 14.98 19 16 19 C16 17.02 16 15.04 16 13 C12.7 13 9.4 13 6 13 C6 12.01 6 11.02 6 10 C4.02 10 2.04 10 0 10 C0 6.7 0 3.4 0 0 Z " fill="#474546" transform="translate(225,50)"/>
<path d="M0 0 C1.32 0 2.64 0 4 0 C4 1.32 4 2.64 4 4 C3.01 4 2.02 4 1 4 C1 4.99 1 5.98 1 7 C1.99 7 2.98 7 4 7 C4 7.99 4 8.98 4 10 C4.99 10 5.98 10 7 10 C7 8.02 7 6.04 7 4 C8.32 4 9.64 4 11 4 C11 3.01 11 2.02 11 1 C12.65 1 14.3 1 16 1 C16 1.99 16 2.98 16 4 C15.01 4 14.02 4 13 4 C13 4.99 13 5.98 13 7 C12.01 7 11.02 7 10 7 C10 8.32 10 9.64 10 11 C11.98 11 13.96 11 16 11 C16 11.99 16 12.98 16 14 C15.01 14 14.02 14 13 14 C13 14.99 13 15.98 13 17 C12.01 17 11.02 17 10 17 C10 21.29 10 25.58 10 30 C9.01 30 8.02 30 7 30 C7 29.01 7 28.02 7 27 C6.01 27 5.02 27 4 27 C4 27.99 4 28.98 4 30 C1.69 30 -0.62 30 -3 30 C-3 29.01 -3 28.02 -3 27 C-2.01 27 -1.02 27 0 27 C0 25.02 0 23.04 0 21 C-0.99 21 -1.98 21 -3 21 C-3 15.39 -3 9.78 -3 4 C-2.01 4 -1.02 4 0 4 C0 2.68 0 1.36 0 0 Z " fill="#242021" transform="translate(228,102)"/>
<path d="M0 0 C45.54 0 91.08 0 138 0 C138 0.33 138 0.66 138 1 C93.12 1 48.24 1 2 1 C2 34.66 2 68.32 2 103 C1.34 102.67 0.68 102.34 0 102 C-0.15363168 88.99622426 -0.30181352 75.99239909 -0.4429636 62.98848152 C-0.50867223 56.95078243 -0.5762853 50.91311698 -0.64819336 44.87548828 C-0.71746974 39.0530202 -0.78181854 33.23051692 -0.84269524 27.40795517 C-0.86684198 25.18230066 -0.8927892 22.95666496 -0.92053413 20.7310524 C-0.95897779 17.62297764 -0.99112142 14.51489867 -1.02172852 11.40673828 C-1.03467453 10.47885498 -1.04762054 9.55097168 -1.06095886 8.5949707 C-1.06799835 7.75080597 -1.07503784 6.90664124 -1.08229065 6.03689575 C-1.09058679 5.30130495 -1.09888292 4.56571415 -1.10743046 3.80783272 C-1 2 -1 2 0 0 Z " fill="#656364" transform="translate(169,35)"/>
<path d="M0 0 C3.3 0 6.6 0 10 0 C10 0.99 10 1.98 10 3 C11.32 3 12.64 3 14 3 C14 2.34 14 1.68 14 1 C15.65 1 17.3 1 19 1 C19 1.66 19 2.32 19 3 C18.01 3.495 18.01 3.495 17 4 C16.67 4.99 16.34 5.98 16 7 C17.32 7 18.64 7 20 7 C20 6.01 20 5.02 20 4 C21.32 4 22.64 4 24 4 C24 3.01 24 2.02 24 1 C26.64 1 29.28 1 32 1 C32 1.99 32 2.98 32 4 C33.32 4 34.64 4 36 4 C36 4.99 36 5.98 36 7 C35.01 7 34.02 7 33 7 C33 8.98 33 10.96 33 13 C32.01 13 31.02 13 30 13 C30 12.01 30 11.02 30 10 C29.01 10 28.02 10 27 10 C27 9.01 27 8.02 27 7 C27.99 7 28.98 7 30 7 C30 5.68 30 4.36 30 3 C28.68 3 27.36 3 26 3 C26 4.32 26 5.64 26 7 C25.01 7 24.02 7 23 7 C23.01160156 8.14339844 23.02320313 9.28679687 23.03515625 10.46484375 C23.04453288 11.95572754 23.05363321 13.44661309 23.0625 14.9375 C23.07087891 15.69224609 23.07925781 16.44699219 23.08789062 17.22460938 C23.09652441 19.14994313 23.05224333 21.07535581 23 23 C22.67 23.33 22.34 23.66 22 24 C21.76807135 25.51469448 21.58784762 27.03754562 21.4375 28.5625 C21.35371094 29.38878906 21.26992187 30.21507812 21.18359375 31.06640625 C21.09271484 32.02353516 21.09271484 32.02353516 21 33 C20.67 33 20.34 33 20 33 C20 25.41 20 17.82 20 10 C15.19809008 10.11835121 15.19809008 10.11835121 10.3972168 10.27026367 C5.40798881 10.33240351 5.40798881 10.33240351 3.14453125 8.48828125 C2.76683594 7.99714844 2.38914063 7.50601563 2 7 C1.34 7 0.68 7 0 7 C0 4.69 0 2.38 0 0 Z " fill="#E7E7E7" transform="translate(202,99)"/>
<path d="M0 0 C2.3125 0.375 2.3125 0.375 3.3125 1.375 C3.11389873 3.58629171 2.87807747 5.79427897 2.625 8 C2.13555773 14.43453437 2.17976503 17.41571803 6.3125 22.375 C8.55034047 24.51242455 10.85724108 26.49217504 13.3125 28.375 C12 29.875 12 29.875 10.3125 31.375 C9.3225 31.375 8.3325 31.375 7.3125 31.375 C7.3125 32.035 7.3125 32.695 7.3125 33.375 C3.53410993 31.86703266 1.66686983 29.6769872 -0.8125 26.5 C-1.49570313 25.63632813 -2.17890625 24.77265625 -2.8828125 23.8828125 C-7.21141173 17.86774604 -7.49826276 12.71190248 -6.6875 5.375 C-4.79914633 1.73817072 -4.06985039 0.5678861 0 0 Z " fill="#343031" transform="translate(143.6875,172.625)"/>
<path d="M0 0 C3.96 0 7.92 0 12 0 C12 1.98 12 3.96 12 6 C20.58 6 29.16 6 38 6 C38 6.99 38 7.98 38 9 C37.01 9 36.02 9 35 9 C35 9.99 35 10.98 35 12 C34.01 12 33.02 12 32 12 C32 11.01 32 10.02 32 9 C28.7 9 25.4 9 22 9 C22 9.99 22 10.98 22 12 C21.01 12 20.02 12 19 12 C19 11.01 19 10.02 19 9 C16.69 9 14.38 9 12 9 C12 9.99 12 10.98 12 12 C11.01 12 10.02 12 9 12 C9 11.01 9 10.02 9 9 C5.7 9 2.4 9 -1 9 C-1 11.31 -1 13.62 -1 16 C-1.99 16 -2.98 16 -4 16 C-4 11.71 -4 7.42 -4 3 C-2.68 3 -1.36 3 0 3 C0 2.01 0 1.02 0 0 Z " fill="#2B2728" transform="translate(203,90)"/>
<path d="M0 0 C5.28 0 10.56 0 16 0 C16 5.28 16 10.56 16 16 C10.72 16 5.44 16 0 16 C0 10.72 0 5.44 0 0 Z " fill="#DBDADB" transform="translate(202,113)"/>
<path d="M0 0 C1.32 0 2.64 0 4 0 C4 0.99 4 1.98 4 3 C4.99 3 5.98 3 7 3 C7 2.01 7 1.02 7 0 C10.3 0 13.6 0 17 0 C17 1.32 17 2.64 17 4 C16.01 4 15.02 4 14 4 C14 4.99 14 5.98 14 7 C14.99 7 15.98 7 17 7 C17 10.3 17 13.6 17 17 C16.01 17 15.02 17 14 17 C14 15.68 14 14.36 14 13 C10.7 13 7.4 13 4 13 C4 11.02 4 9.04 4 7 C3.01 7 2.02 7 1 7 C1 9.31 1 11.62 1 14 C0.01 14 -0.98 14 -2 14 C-2 14.99 -2 15.98 -2 17 C-3.32 17 -4.64 17 -6 17 C-6 15.68 -6 14.36 -6 13 C-5.01 13 -4.02 13 -3 13 C-3 12.01 -3 11.02 -3 10 C-3.99 10 -4.98 10 -6 10 C-6 9.01 -6 8.02 -6 7 C-5.01 7 -4.02 7 -3 7 C-3 5.68 -3 4.36 -3 3 C-2.01 3 -1.02 3 0 3 C0 2.01 0 1.02 0 0 Z " fill="#535051" transform="translate(264,76)"/>
<path d="M0 0 C3.3 0 6.6 0 10 0 C10 0.99 10 1.98 10 3 C10.99 3 11.98 3 13 3 C13 4.98 13 6.96 13 9 C10.69 9 8.38 9 6 9 C6 10.32 6 11.64 6 13 C8.64 13 11.28 13 14 13 C14 12.01 14 11.02 14 10 C14.66 10 15.32 10 16 10 C16 10.99 16 11.98 16 13 C17.32 13 18.64 13 20 13 C20 12.01 20 11.02 20 10 C21.98 10 23.96 10 26 10 C26 10.99 26 11.98 26 13 C26.99 13 27.98 13 29 13 C29 13.99 29 14.98 29 16 C20.42 16 11.84 16 3 16 C3 14.02 3 12.04 3 10 C0.03 10 -2.94 10 -6 10 C-6.33 8.68 -6.66 7.36 -7 6 C-4.69 6 -2.38 6 0 6 C0 4.02 0 2.04 0 0 Z " fill="#DDDCDC" transform="translate(212,80)"/>
<path d="M0 0 C7.59 0 15.18 0 23 0 C23 7.59 23 15.18 23 23 C15.41 23 7.82 23 0 23 C0 15.41 0 7.82 0 0 Z M3 3 C3 8.61 3 14.22 3 20 C5.619375 20.020625 8.23875 20.04125 10.9375 20.0625 C12.17681274 20.07615601 12.17681274 20.07615601 13.44116211 20.09008789 C15.29433759 20.09723945 17.14749308 20.0502852 19 20 C20.41774838 18.81147145 20.41774838 18.81147145 20.09765625 15.40234375 C20.09191272 13.91402745 20.07889891 12.42573704 20.0625 10.9375 C20.0315625 7.0084375 20.0315625 7.0084375 20 3 C14.39 3 8.78 3 3 3 Z " fill="#393637" transform="translate(258,50)"/>
<path d="M0 0 C7.59 0 15.18 0 23 0 C23 7.59 23 15.18 23 23 C15.41 23 7.82 23 0 23 C0 15.41 0 7.82 0 0 Z M3 3 C3 8.61 3 14.22 3 20 C8.61 20 14.22 20 20 20 C20 14.39 20 8.78 20 3 C14.39 3 8.78 3 3 3 Z " fill="#333031" transform="translate(199,50)"/>
<path d="M0 0 C0.33 0 0.66 0 1 0 C1 1.98 1 3.96 1 6 C1.99 6 2.98 6 4 6 C4 6.99 4 7.98 4 9 C4.66 9 5.32 9 6 9 C6 8.01 6 7.02 6 6 C8.64 6 11.28 6 14 6 C14 6.99 14 7.98 14 9 C14.66 9 15.32 9 16 9 C16 6.03 16 3.06 16 0 C16.33 0 16.66 0 17 0 C17 3.3 17 6.6 17 10 C17.99 10 18.98 10 20 10 C20 10.99 20 11.98 20 13 C19.01 13 18.02 13 17 13 C17 14.32 17 15.64 17 17 C16.01 17 15.02 17 14 17 C14 17.66 14 18.32 14 19 C15.65 19 17.3 19 19 19 C19 18.01 19 17.02 19 16 C20.32 16 21.64 16 23 16 C23 14.02 23 12.04 23 10 C23.33 10 23.66 10 24 10 C24 11.98 24 13.96 24 16 C24.66 16 25.32 16 26 16 C26 15.01 26 14.02 26 13 C27.32 13 28.64 13 30 13 C30 14.32 30 15.64 30 17 C29.01 17 28.02 17 27 17 C27 20.96 27 24.92 27 29 C26.67 29 26.34 29 26 29 C26 25.04 26 21.08 26 17 C25.34 17 24.68 17 24 17 C24 17.99 24 18.98 24 20 C22.68 20 21.36 20 20 20 C19.67 20.99 19.34 21.98 19 23 C19 22.01 19 21.02 19 20 C17.35 20 15.7 20 14 20 C13.67 20.99 13.34 21.98 13 23 C13 22.01 13 21.02 13 20 C11.68 20 10.36 20 9 20 C9 19.01 9 18.02 9 17 C6.36 17 3.72 17 1 17 C1 17.99 1 18.98 1 20 C-0.32 20 -1.64 20 -3 20 C-3 20.99 -3 21.98 -3 23 C-4.32 23 -5.64 23 -7 23 C-6.67 21.68 -6.34 20.36 -6 19 C-5.34 19 -4.68 19 -4 19 C-4 18.34 -4 17.68 -4 17 C-5.65 17 -7.3 17 -9 17 C-9.33 17.66 -9.66 18.32 -10 19 C-10 18.01 -10 17.02 -10 16 C-7.69 16 -5.38 16 -3 16 C-3 16.99 -3 17.98 -3 19 C-2.01 19 -1.02 19 0 19 C0 18.01 0 17.02 0 16 C3.3 16 6.6 16 10 16 C10 16.99 10 17.98 10 19 C10.99 19 11.98 19 13 19 C13 18.01 13 17.02 13 16 C13.99 16 14.98 16 16 16 C16 14.02 16 12.04 16 10 C15.01 10 14.02 10 13 10 C13 9.01 13 8.02 13 7 C11.02 7 9.04 7 7 7 C7 7.99 7 8.98 7 10 C5.68 10 4.36 10 3 10 C3 9.01 3 8.02 3 7 C2.34 7 1.68 7 1 7 C1 7.99 1 8.98 1 10 C-1.64 10 -4.28 10 -7 10 C-7 8.68 -7 7.36 -7 6 C-4.69 6 -2.38 6 0 6 C0 4.02 0 2.04 0 0 Z " fill="#A4A3A3" transform="translate(225,83)"/>
<path d="M0 0 C0.99 0 1.98 0 3 0 C3 3.3 3 6.6 3 10 C4.98 10 6.96 10 9 10 C9 10.99 9 11.98 9 13 C12.3 13 15.6 13 19 13 C19 14.98 19 16.96 19 19 C18.01 19 17.02 19 16 19 C16 20.32 16 21.64 16 23 C16.99 23 17.98 23 19 23 C19 23.99 19 24.98 19 26 C20.32 26 21.64 26 23 26 C23 27.32 23 28.64 23 30 C21.02 30 19.04 30 17 30 C17 30.99 17 31.98 17 33 C17.66 33 18.32 33 19 33 C19 33.99 19 34.98 19 36 C18.01 36 17.02 36 16 36 C16 35.01 16 34.02 16 33 C15.01 33 14.02 33 13 33 C13 31.68 13 30.36 13 29 C13.99 29 14.98 29 16 29 C16 28.01 16 27.02 16 26 C15.01 26 14.02 26 13 26 C13 24.02 13 22.04 13 20 C12.01 20 11.02 20 10 20 C10 18.68 10 17.36 10 16 C9.01 16 8.02 16 7 16 C7 15.01 7 14.02 7 13 C5.02 13 3.04 13 1 13 C1 16.3 1 19.6 1 23 C0.67 23 0.34 23 0 23 C0 15.41 0 7.82 0 0 Z " fill="#EDECED" transform="translate(222,50)"/>
<path d="M0 0 C0.99 0 1.98 0 3 0 C3 1.32 3 2.64 3 4 C4.98 4 6.96 4 9 4 C9 4.99 9 5.98 9 7 C7.02 7 5.04 7 3 7 C3 13.6 3 20.2 3 27 C3.99 27 4.98 27 6 27 C6 28.98 6 30.96 6 33 C5.01 33 4.02 33 3 33 C3 32.01 3 31.02 3 30 C2.01 30 1.02 30 0 30 C0 30.99 0 31.98 0 33 C-0.99 33 -1.98 33 -3 33 C-3 32.01 -3 31.02 -3 30 C-3.99 30 -4.98 30 -6 30 C-6 29.01 -6 28.02 -6 27 C-4.02 27 -2.04 27 0 27 C0 25.68 0 24.36 0 23 C-0.99 23 -1.98 23 -3 23 C-3 22.01 -3 21.02 -3 20 C-2.01 20 -1.02 20 0 20 C0 19.01 0 18.02 0 17 C-0.99 17 -1.98 17 -3 17 C-3 14.36 -3 11.72 -3 9 C-3.99 8.67 -4.98 8.34 -6 8 C-4.68 8 -3.36 8 -2 8 C-2 6.68 -2 5.36 -2 4 C-1.34 4 -0.68 4 0 4 C0 2.68 0 1.36 0 0 Z " fill="#333031" transform="translate(245,53)"/>
<path d="M0 0 C0.99 0 1.98 0 3 0 C3 0.99 3 1.98 3 3 C5.31 3 7.62 3 10 3 C10 2.01 10 1.02 10 0 C10.66 0 11.32 0 12 0 C12 0.99 12 1.98 12 3 C13.32 3 14.64 3 16 3 C16 4.98 16 6.96 16 9 C15.01 9 14.02 9 13 9 C13 8.01 13 7.02 13 6 C11.68 6 10.36 6 9 6 C9 7.32 9 8.64 9 10 C10.32 10 11.64 10 13 10 C13 11.98 13 13.96 13 16 C13.99 16 14.98 16 16 16 C16 18.31 16 20.62 16 23 C13.69 23 11.38 23 9 23 C9 21.68 9 20.36 9 19 C9.99 19 10.98 19 12 19 C12 18.01 12 17.02 12 16 C10.02 16 8.04 16 6 16 C6 13.69 6 11.38 6 9 C5.01 9 4.02 9 3 9 C3 8.01 3 7.02 3 6 C2.01 6 1.02 6 0 6 C0 4.02 0 2.04 0 0 Z " fill="#2E2B2C" transform="translate(265,93)"/>
<path d="M0 0 C0.99 0 1.98 0 3 0 C3 1.98 3 3.96 3 6 C6.3 6 9.6 6 13 6 C13 8.31 13 10.62 13 13 C12.67 12.01 12.34 11.02 12 10 C11.34 10 10.68 10 10 10 C10 10.99 10 11.98 10 13 C7.69 13 5.38 13 3 13 C3 12.01 3 11.02 3 10 C2.01 10 1.02 10 0 10 C0 11.98 0 13.96 0 16 C0.99 16 1.98 16 3 16 C3 16.99 3 17.98 3 19 C3.99 19.33 4.98 19.66 6 20 C3.69 20 1.38 20 -1 20 C-1 19.01 -1 18.02 -1 17 C-1.66 17 -2.32 17 -3 17 C-3 17.99 -3 18.98 -3 20 C-4.32 20 -5.64 20 -7 20 C-7 18.68 -7 17.36 -7 16 C-6.01 16 -5.02 16 -4 16 C-4 15.01 -4 14.02 -4 13 C-4.99 13 -5.98 13 -7 13 C-7 12.01 -7 11.02 -7 10 C-5.68 10 -4.36 10 -3 10 C-3 9.01 -3 8.02 -3 7 C-2.01 7 -1.02 7 0 7 C0 4.69 0 2.38 0 0 Z " fill="#E3E3E3" transform="translate(265,83)"/>
<path d="M0 0 C2.31 0 4.62 0 7 0 C7 4.29 7 8.58 7 13 C6.01 13 5.02 13 4 13 C4 12.01 4 11.02 4 10 C1.69 10 -0.62 10 -3 10 C-3 10.99 -3 11.98 -3 13 C-3.99 13 -4.98 13 -6 13 C-6 12.01 -6 11.02 -6 10 C-8.31 10 -10.62 10 -13 10 C-13 8.68 -13 7.36 -13 6 C-12.01 6 -11.02 6 -10 6 C-10 5.01 -10 4.02 -10 3 C-6.7 3 -3.4 3 0 3 C0 2.01 0 1.02 0 0 Z " fill="#322E2F" transform="translate(274,119)"/>
<path d="M0 0 C1.32 0 2.64 0 4 0 C4 0.99 4 1.98 4 3 C4.99 3 5.98 3 7 3 C7 5.31 7 7.62 7 10 C6.01 10 5.02 10 4 10 C4 11.32 4 12.64 4 14 C1.36 14.33 -1.28 14.66 -4 15 C-3.67 15.66 -3.34 16.32 -3 17 C-6.3 17 -9.6 17 -13 17 C-13 18.98 -13 20.96 -13 23 C-15.31 23 -17.62 23 -20 23 C-19.67 24.32 -19.34 25.64 -19 27 C-19.99 27 -20.98 27 -22 27 C-22.33 27.99 -22.66 28.98 -23 30 C-23 26.7 -23 23.4 -23 20 C-20.69 20 -18.38 20 -16 20 C-16 17.69 -16 15.38 -16 13 C-9.73 13 -3.46 13 3 13 C3 12.01 3 11.02 3 10 C2.01 10 1.02 10 0 10 C0 8.68 0 7.36 0 6 C0.99 6 1.98 6 3 6 C3 5.34 3 4.68 3 4 C2.01 4 1.02 4 0 4 C0 2.68 0 1.36 0 0 Z " fill="#3F3B3C" transform="translate(225,63)"/>
<path d="M0 0 C0.66 0 1.32 0 2 0 C2 3.96 2 7.92 2 12 C1.01 12 0.02 12 -1 12 C-1 14.31 -1 16.62 -1 19 C-2.98 19 -4.96 19 -7 19 C-7 20.98 -7 22.96 -7 25 C-6.34 25 -5.68 25 -5 25 C-5 24.01 -5 23.02 -5 22 C-3.35 22 -1.7 22 0 22 C0 22.99 0 23.98 0 25 C0.66 25 1.32 25 2 25 C2 23.02 2 21.04 2 19 C2.33 19 2.66 19 3 19 C3 21.31 3 23.62 3 26 C1.68 26 0.36 26 -1 26 C-1 25.01 -1 24.02 -1 23 C-1.99 23 -2.98 23 -4 23 C-4 23.99 -4 24.98 -4 26 C-5.32 26 -6.64 26 -8 26 C-8 22.7 -8 19.4 -8 16 C-7.01 16 -6.02 16 -5 16 C-5 15.01 -5 14.02 -5 13 C-6.98 13 -8.96 13 -11 13 C-11 11.68 -11 10.36 -11 9 C-10.01 9 -9.02 9 -8 9 C-8 8.01 -8 7.02 -8 6 C-6.68 6 -5.36 6 -4 6 C-4 5.01 -4 4.02 -4 3 C-2.68 3 -1.36 3 0 3 C0 2.01 0 1.02 0 0 Z " fill="#FAF9FA" transform="translate(249,100)"/>
<path d="M0 0 C0.99 0 1.98 0 3 0 C3 1.98 3 3.96 3 6 C4.98 6 6.96 6 9 6 C9 6.99 9 7.98 9 9 C8.01 9 7.02 9 6 9 C6 10.32 6 11.64 6 13 C8.31 13 10.62 13 13 13 C13 13.99 13 14.98 13 16 C10.69 16 8.38 16 6 16 C6 16.99 6 17.98 6 19 C1.71 19 -2.58 19 -7 19 C-7 18.01 -7 17.02 -7 16 C-4.69 16 -2.38 16 0 16 C0 10.72 0 5.44 0 0 Z " fill="#F2F2F2" transform="translate(268,103)"/>
<path d="M0 0 C1.32 0 2.64 0 4 0 C4 1.32 4 2.64 4 4 C3.01 4 2.02 4 1 4 C1 4.99 1 5.98 1 7 C1.99 7 2.98 7 4 7 C3.67 7.99 3.34 8.98 3 10 C3 9.34 3 8.68 3 8 C1.68 8 0.36 8 -1 8 C-1.33 11.96 -1.66 15.92 -2 20 C-1.01 20 -0.02 20 1 20 C1.33 20.99 1.66 21.98 2 23 C2.33 21.35 2.66 19.7 3 18 C2.01 18 1.02 18 0 18 C0 16.68 0 15.36 0 14 C2.31 14 4.62 14 7 14 C7 17.3 7 20.6 7 24 C6.34 24.33 5.68 24.66 5 25 C5.66 25.66 6.32 26.32 7 27 C6.01 27 5.02 27 4 27 C4 27.99 4 28.98 4 30 C1.69 30 -0.62 30 -3 30 C-3 29.01 -3 28.02 -3 27 C-2.01 27 -1.02 27 0 27 C0 25.02 0 23.04 0 21 C-0.99 21 -1.98 21 -3 21 C-3 15.39 -3 9.78 -3 4 C-2.01 4 -1.02 4 0 4 C0 2.68 0 1.36 0 0 Z " fill="#444142" transform="translate(228,102)"/>
<path d="M0 0 C2 3 2 3 2 6 C2.66 6 3.32 6 4 6 C4 5.01 4 4.02 4 3 C5.32 3 6.64 3 8 3 C9.36952673 5.73905345 9.12621361 7.97087332 9 11 C8.67 11.66 8.34 12.32 8 13 C6.35 13 4.7 13 3 13 C2.67 12.34 2.34 11.68 2 11 C1.67 13.64 1.34 16.28 1 19 C1.66 19 2.32 19 3 19 C3 18.01 3 17.02 3 16 C5.31 16 7.62 16 10 16 C10 18.31 10 20.62 10 23 C8.68 23 7.36 23 6 23 C6 22.01 6 21.02 6 20 C5.34 20 4.68 20 4 20 C4 21.98 4 23.96 4 26 C3.67 26 3.34 26 3 26 C3 24.02 3 22.04 3 20 C2.01 20 1.02 20 0 20 C0 13.4 0 6.8 0 0 Z " fill="#BBBABB" transform="translate(248,60)"/>
<path d="M0 0 C3.3 0 6.6 0 10 0 C10 3.3 10 6.6 10 10 C6.7 10 3.4 10 0 10 C0 6.7 0 3.4 0 0 Z " fill="#BFBEBF" transform="translate(255,106)"/>
<path d="M0 0 C0.99 0 1.98 0 3 0 C3 1.32 3 2.64 3 4 C4.98 4 6.96 4 9 4 C9 4.99 9 5.98 9 7 C6.69 7 4.38 7 2 7 C2 10.96 2 14.92 2 19 C1.67 18.34 1.34 17.68 1 17 C-0.32 17 -1.64 17 -3 17 C-3 14.36 -3 11.72 -3 9 C-3.99 8.67 -4.98 8.34 -6 8 C-4.68 8 -3.36 8 -2 8 C-2 6.68 -2 5.36 -2 4 C-1.34 4 -0.68 4 0 4 C0 2.68 0 1.36 0 0 Z " fill="#302C2D" transform="translate(245,53)"/>
<path d="M0 0 C0 0.99 0 1.98 0 3 C-0.99 3 -1.98 3 -3 3 C-3 3.99 -3 4.98 -3 6 C-3.99 6 -4.98 6 -6 6 C-6 10.29 -6 14.58 -6 19 C-6.99 19 -7.98 19 -9 19 C-9 17.68 -9 16.36 -9 15 C-9.99 14.67 -10.98 14.34 -12 14 C-11.01 13.67 -10.02 13.34 -9 13 C-9 9.7 -9 6.4 -9 3 C-10.98 3 -12.96 3 -15 3 C-15 2.67 -15 2.34 -15 2 C-9.92523206 0.73694665 -5.27203646 -0.27036084 0 0 Z " fill="#333031" transform="translate(244,113)"/>
<path d="M0 0 C1.27609323 0.90933009 2.54565553 1.82782853 3.8125 2.75 C4.87404297 3.51570313 4.87404297 3.51570313 5.95703125 4.296875 C8.02977691 6.02482358 9.47375854 7.78526476 11 10 C10.01 10.33 9.02 10.66 8 11 C7.34 12.32 6.68 13.64 6 15 C2.7 12.03 -0.6 9.06 -4 6 C-2.68 4.02 -1.36 2.04 0 0 Z " fill="#302D2E" transform="translate(144,89)"/>
<path d="M0 0 C0.33 0.99 0.66 1.98 1 3 C3.97 3 6.94 3 10 3 C10 2.01 10 1.02 10 0 C10.66 0 11.32 0 12 0 C12 0.99 12 1.98 12 3 C13.32 3 14.64 3 16 3 C16 2.01 16 1.02 16 0 C17.98 0 19.96 0 22 0 C22 0.99 22 1.98 22 3 C22.99 3 23.98 3 25 3 C25 3.99 25 4.98 25 6 C16.61988971 6.15392039 8.35104207 5.68271293 0 5 C0 3.35 0 1.7 0 0 Z " fill="#FAFAFA" transform="translate(216,90)"/>
<path d="M0 0 C0.66 0.33 1.32 0.66 2 1 C2 6.94 2 12.88 2 19 C-4.6 19 -11.2 19 -18 19 C-17.34 18.67 -16.68 18.34 -16 18 C-16 17.34 -16 16.68 -16 16 C-10.72 16 -5.44 16 0 16 C0 10.72 0 5.44 0 0 Z " fill="#262223" transform="translate(219,113)"/>
<path d="M0 0 C0.33 0 0.66 0 1 0 C1 1.98 1 3.96 1 6 C1.99 6 2.98 6 4 6 C4 6.99 4 7.98 4 9 C4.66 9 5.32 9 6 9 C6 8.01 6 7.02 6 6 C8.64 6 11.28 6 14 6 C14 6.99 14 7.98 14 9 C14.66 9 15.32 9 16 9 C16 6.03 16 3.06 16 0 C16.33 0 16.66 0 17 0 C17 3.3 17 6.6 17 10 C17.99 10 18.98 10 20 10 C20 10.99 20 11.98 20 13 C19.01 13 18.02 13 17 13 C16.67 13.99 16.34 14.98 16 16 C16 14.02 16 12.04 16 10 C15.01 10 14.02 10 13 10 C13 9.01 13 8.02 13 7 C11.02 7 9.04 7 7 7 C7 7.99 7 8.98 7 10 C5.68 10 4.36 10 3 10 C3 9.01 3 8.02 3 7 C2.34 7 1.68 7 1 7 C1 7.99 1 8.98 1 10 C-1.64 10 -4.28 10 -7 10 C-7 8.68 -7 7.36 -7 6 C-4.69 6 -2.38 6 0 6 C0 4.02 0 2.04 0 0 Z " fill="#777676" transform="translate(225,83)"/>
<path d="M0 0 C6.93 0 13.86 0 21 0 C21 1.65 21 3.3 21 5 C20.67 4.34 20.34 3.68 20 3 C13.73 3 7.46 3 1 3 C1 8.61 1 14.22 1 20 C0.67 20 0.34 20 0 20 C0 13.4 0 6.8 0 0 Z " fill="#252324" transform="translate(259,50)"/>
<path d="M0 0 C2.97 0 5.94 0 9 0 C9 2.97 9 5.94 9 9 C6.03 9 3.06 9 0 9 C0 6.03 0 3.06 0 0 Z " fill="#272324" transform="translate(206,116)"/>
<path d="M0 0 C2.97 0 5.94 0 9 0 C9 2.97 9 5.94 9 9 C6.03 9 3.06 9 0 9 C0 6.03 0 3.06 0 0 Z " fill="#262223" transform="translate(265,57)"/>
<path d="M0 0 C0.103125 0.639375 0.20625 1.27875 0.3125 1.9375 C0.6528125 2.9584375 0.6528125 2.9584375 1 4 C1.99 4.33 2.98 4.66 4 5 C4.33 5.66 4.66 6.32 5 7 C2.69 7 0.38 7 -2 7 C-2 8.98 -2 10.96 -2 13 C-2.66 13 -3.32 13 -4 13 C-4 12.01 -4 11.02 -4 10 C-5.65 10 -7.3 10 -9 10 C-9 10.99 -9 11.98 -9 13 C-9.66 13 -10.32 13 -11 13 C-11 11.02 -11 9.04 -11 7 C-8.69 7 -6.38 7 -4 7 C-4 5.02 -4 3.04 -4 1 C-2.68 0.67 -1.36 0.34 0 0 Z " fill="#242021" transform="translate(253,112)"/>
<path d="M0 0 C3.3 0 6.6 0 10 0 C8.02 0.99 8.02 0.99 6 2 C6.66 3.32 7.32 4.64 8 6 C9.98 6 11.96 6 14 6 C14 6.33 14 6.66 14 7 C11.69 7 9.38 7 7 7 C7 7.99 7 8.98 7 10 C6.01 10 5.02 10 4 10 C4 9.01 4 8.02 4 7 C1.69 7 -0.62 7 -3 7 C-3 5.68 -3 4.36 -3 3 C-2.01 3 -1.02 3 0 3 C0 2.01 0 1.02 0 0 Z " fill="#585556" transform="translate(264,122)"/>
<path d="M0 0 C1.32 0 2.64 0 4 0 C4 0.99 4 1.98 4 3 C4.99 3 5.98 3 7 3 C7 5.31 7 7.62 7 10 C6.01 10 5.02 10 4 10 C4 11.32 4 12.64 4 14 C-2.6 14 -9.2 14 -16 14 C-16 13.67 -16 13.34 -16 13 C-9.73 13 -3.46 13 3 13 C3 12.01 3 11.02 3 10 C2.01 10 1.02 10 0 10 C0 8.68 0 7.36 0 6 C0.99 6 1.98 6 3 6 C3 5.34 3 4.68 3 4 C2.01 4 1.02 4 0 4 C0 2.68 0 1.36 0 0 Z " fill="#787777" transform="translate(225,63)"/>
<path d="M0 0 C0.33 1.32 0.66 2.64 1 4 C0.01 4 -0.98 4 -2 4 C-2 4.66 -2 5.32 -2 6 C-0.6078125 5.9690625 -0.6078125 5.9690625 0.8125 5.9375 C4 6 4 6 7 7 C7 8.98 7 10.96 7 13 C5.02 13 3.04 13 1 13 C1 14.98 1 16.96 1 19 C1.66 19 2.32 19 3 19 C3 18.01 3 17.02 3 16 C4.65 16 6.3 16 8 16 C8 16.99 8 17.98 8 19 C8.66 19 9.32 19 10 19 C10 17.02 10 15.04 10 13 C10.33 13 10.66 13 11 13 C11 15.31 11 17.62 11 20 C9.68 20 8.36 20 7 20 C7 19.01 7 18.02 7 17 C6.01 17 5.02 17 4 17 C4 17.99 4 18.98 4 20 C2.68 20 1.36 20 0 20 C0 16.7 0 13.4 0 10 C0.99 10 1.98 10 3 10 C3 9.01 3 8.02 3 7 C1.02 7 -0.96 7 -3 7 C-3 5.68 -3 4.36 -3 3 C-2.01 3 -1.02 3 0 3 C0 2.01 0 1.02 0 0 Z " fill="#AFADAE" transform="translate(241,106)"/>
<path d="M0 0 C0.33 0 0.66 0 1 0 C1 7.59 1 15.18 1 23 C0.67 23 0.34 23 0 23 C-0.33 19.7 -0.66 16.4 -1 13 C-2.32 13 -3.64 13 -5 13 C-5 13.99 -5 14.98 -5 16 C-5.66 16 -6.32 16 -7 16 C-7.33 14.02 -7.66 12.04 -8 10 C-6.35 10 -4.7 10 -3 10 C-3 9.01 -3 8.02 -3 7 C-4.98 7 -6.96 7 -9 7 C-8.67 5.68 -8.34 4.36 -8 3 C-8 3.99 -8 4.98 -8 6 C-5.69 6 -3.38 6 -1 6 C-0.67 4.02 -0.34 2.04 0 0 Z " fill="#D1D1D1" transform="translate(257,50)"/>
<path d="M0 0 C2.64 0 5.28 0 8 0 C8 2.97 8 5.94 8 9 C5.36 9 2.72 9 0 9 C0 6.03 0 3.06 0 0 Z " fill="#231F20" transform="translate(206,57)"/>
<path d="M0 0 C0.66 0 1.32 0 2 0 C2 0.99 2 1.98 2 3 C3.32 3 4.64 3 6 3 C6 3.99 6 4.98 6 6 C6.99 6 7.98 6 9 6 C9 6.99 9 7.98 9 9 C8.01 9 7.02 9 6 9 C6 10.32 6 11.64 6 13 C5.01 13 4.02 13 3 13 C3 11.68 3 10.36 3 9 C1.02 9 -0.96 9 -3 9 C-3 8.34 -3 7.68 -3 7 C-2.34 6.67 -1.68 6.34 -1 6 C-0.34227572 2.97065509 -0.34227572 2.97065509 0 0 Z " fill="#F2F1F2" transform="translate(252,80)"/>
<path d="M0 0 C1.65 0 3.3 0 5 0 C5 0.99 5 1.98 5 3 C5.99 3 6.98 3 8 3 C8 4.98 8 6.96 8 9 C7.34 9 6.68 9 6 9 C6 8.01 6 7.02 6 6 C3.36 6 0.72 6 -2 6 C-2 6.99 -2 7.98 -2 9 C-2.66 9 -3.32 9 -4 9 C-4 8.01 -4 7.02 -4 6 C-4.99 6 -5.98 6 -7 6 C-7 5.01 -7 4.02 -7 3 C-5.02 3 -3.04 3 -1 3 C-0.67 2.01 -0.34 1.02 0 0 Z " fill="#262324" transform="translate(233,83)"/>
<path d="M0 0 C0.33 0.99 0.66 1.98 1 3 C3.64 3 6.28 3 9 3 C9 2.01 9 1.02 9 0 C9.99 0 10.98 0 12 0 C12 3.3 12 6.6 12 10 C11.01 10 10.02 10 9 10 C9 8.68 9 7.36 9 6 C6.03 6 3.06 6 0 6 C0 4.02 0 2.04 0 0 Z " fill="#3E3B3C" transform="translate(269,83)"/>
<path d="M0 0 C-0.99 0.33 -1.98 0.66 -3 1 C-3 3.31 -3 5.62 -3 8 C-3.99 8 -4.98 8 -6 8 C-6 8.99 -6 9.98 -6 11 C-7.32 11 -8.64 11 -10 11 C-10 9.68 -10 8.36 -10 7 C-9.01 7 -8.02 7 -7 7 C-7 6.01 -7 5.02 -7 4 C-7.99 4 -8.98 4 -10 4 C-10 3.01 -10 2.02 -10 1 C-6.59437148 0.22157062 -3.49234244 -0.09978121 0 0 Z " fill="#312D2E" transform="translate(268,82)"/>
<path d="M0 0 C1.32 0 2.64 0 4 0 C4 1.32 4 2.64 4 4 C3.01 4 2.02 4 1 4 C1 4.99 1 5.98 1 7 C1.99 7 2.98 7 4 7 C3.67 7.99 3.34 8.98 3 10 C3 9.34 3 8.68 3 8 C1.68 8 0.36 8 -1 8 C-1.33 11.96 -1.66 15.92 -2 20 C-1.01 20 -0.02 20 1 20 C1 22.31 1 24.62 1 27 C0.67 27 0.34 27 0 27 C0 25.02 0 23.04 0 21 C-0.99 21 -1.98 21 -3 21 C-3 15.39 -3 9.78 -3 4 C-2.01 4 -1.02 4 0 4 C0 2.68 0 1.36 0 0 Z " fill="#6C6A6B" transform="translate(228,102)"/>
<path d="M0 0 C0.33 0 0.66 0 1 0 C1 1.98 1 3.96 1 6 C1.66 6 2.32 6 3 6 C3 5.01 3 4.02 3 3 C4.32 3 5.64 3 7 3 C7 4.32 7 5.64 7 7 C6.01 7 5.02 7 4 7 C4 10.96 4 14.92 4 19 C3.67 19 3.34 19 3 19 C3 15.04 3 11.08 3 7 C2.34 7 1.68 7 1 7 C1 7.99 1 8.98 1 10 C-0.32 10 -1.64 10 -3 10 C-3 8.68 -3 7.36 -3 6 C-2.01 6 -1.02 6 0 6 C0 4.02 0 2.04 0 0 Z " fill="#8C8A8B" transform="translate(248,93)"/>
<path d="M0 0 C0.99 0 1.98 0 3 0 C3 0.99 3 1.98 3 3 C5.31 3 7.62 3 10 3 C10 2.01 10 1.02 10 0 C10.66 0 11.32 0 12 0 C12 0.99 12 1.98 12 3 C13.32 3 14.64 3 16 3 C16 4.98 16 6.96 16 9 C15.67 9 15.34 9 15 9 C15 7.35 15 5.7 15 4 C8.89051241 4.04165316 8.89051241 4.04165316 3.9375 7.0625 C3.4734375 8.0215625 3.4734375 8.0215625 3 9 C3 8.01 3 7.02 3 6 C2.01 6 1.02 6 0 6 C0 4.02 0 2.04 0 0 Z " fill="#343132" transform="translate(265,93)"/>
<path d="M0 0 C4.62 0 9.24 0 14 0 C14 3.96 14 7.92 14 12 C13.67 12 13.34 12 13 12 C12.67 9.03 12.34 6.06 12 3 C8.37 3 4.74 3 1 3 C1 5.97 1 8.94 1 12 C0.67 12 0.34 12 0 12 C0 8.04 0 4.08 0 0 Z " fill="#FCFCFC" transform="translate(203,54)"/>
<path d="M0 0 C3.36241563 0.45438049 6.04009971 1.35561095 9 3 C7.35 3 5.7 3 4 3 C4 4.32 4 5.64 4 7 C3.34 7 2.68 7 2 7 C2 7.99 2 8.98 2 10 C0.35 10 -1.3 10 -3 10 C-3 8.68 -3 7.36 -3 6 C-1.68 6 -0.36 6 1 6 C1 4.68 1 3.36 1 2 C0.34 1.67 -0.32 1.34 -1 1 C-0.67 0.67 -0.34 0.34 0 0 Z " fill="#2C2A2B" transform="translate(257,116)"/>
<path d="M0 0 C0.99 0 1.98 0 3 0 C3 1.98 3 3.96 3 6 C3.99 6 4.98 6 6 6 C6 6.99 6 7.98 6 9 C5.21625 8.814375 4.4325 8.62875 3.625 8.4375 C1.02910225 7.74037734 1.02910225 7.74037734 -1 9 C-1.66 8.67 -2.32 8.34 -3 8 C-3 6.35 -3 4.7 -3 3 C-2.01 3 -1.02 3 0 3 C0 2.01 0 1.02 0 0 Z " fill="#312E2F" transform="translate(232,70)"/>
<path d="M0 0 C0.33 0 0.66 0 1 0 C1 1.98 1 3.96 1 6 C1.99 6 2.98 6 4 6 C4 8.31 4 10.62 4 13 C1.69 13 -0.62 13 -3 13 C-3 11.68 -3 10.36 -3 9 C-2.01 9 -1.02 9 0 9 C0 6.03 0 3.06 0 0 Z " fill="#5D5A5B" transform="translate(277,103)"/>
<path d="M0 0 C1.65 0 3.3 0 5 0 C5 0.99 5 1.98 5 3 C4.01 3 3.02 3 2 3 C2 3.99 2 4.98 2 6 C1.01 6 0.02 6 -1 6 C-1.33 7.32 -1.66 8.64 -2 10 C-3.65 10 -5.3 10 -7 10 C-6.01 9.67 -5.02 9.34 -4 9 C-4 7.02 -4 5.04 -4 3 C-2.68 3 -1.36 3 0 3 C0 2.01 0 1.02 0 0 Z " fill="#353233" transform="translate(239,103)"/>
<path d="M0 0 C0.33 0 0.66 0 1 0 C1 1.98 1 3.96 1 6 C1.99 6 2.98 6 4 6 C4 6.99 4 7.98 4 9 C4.99 9.33 5.98 9.66 7 10 C4.69 10 2.38 10 0 10 C0 9.01 0 8.02 0 7 C-0.66 7 -1.32 7 -2 7 C-2 7.99 -2 8.98 -2 10 C-3.32 10 -4.64 10 -6 10 C-6 8.68 -6 7.36 -6 6 C-5.01 6 -4.02 6 -3 6 C-2.67 5.01 -2.34 4.02 -2 3 C-2 3.99 -2 4.98 -2 6 C-1.34 6 -0.68 6 0 6 C0 4.02 0 2.04 0 0 Z " fill="#A5A4A4" transform="translate(264,93)"/>
<path d="M0 0 C3.04386724 -0.08226668 5.07175348 0.02391783 8 1 C8 4.3 8 7.6 8 11 C7.67 10.34 7.34 9.68 7 9 C5.68 9 4.36 9 3 9 C3 6.36 3 3.72 3 1 C2.01 0.67 1.02 0.34 0 0 Z " fill="#282526" transform="translate(239,61)"/>
<path d="M0 0 C0.33 0 0.66 0 1 0 C1 3.63 1 7.26 1 11 C-3.95 11 -8.9 11 -14 11 C-14 10.34 -14 9.68 -14 9 C-8.06 8.505 -8.06 8.505 -2 8 C-1.34 5.36 -0.68 2.72 0 0 Z " fill="#FBFBFB" transform="translate(276,58)"/>
<path d="M0 0 C1.65 0 3.3 0 5 0 C5 2.97 5 5.94 5 9 C3.35 9 1.7 9 0 9 C0 6.03 0 3.06 0 0 Z " fill="#232021" transform="translate(226,50)"/>
<path d="M0 0 C1.32 0 2.64 0 4 0 C4 2.31 4 4.62 4 7 C3.01 7 2.02 7 1 7 C1 7.99 1 8.98 1 10 C-0.32 10 -1.64 10 -3 10 C-3 8.68 -3 7.36 -3 6 C-2.01 6 -1.02 6 0 6 C0 4.02 0 2.04 0 0 Z " fill="#9A9899" transform="translate(241,50)"/>
<path d="M0 0 C0.33 0 0.66 0 1 0 C1 5.28 1 10.56 1 16 C-1.31 15.34 -3.62 14.68 -6 14 C-4.68 13.67 -3.36 13.34 -2 13 C-2.02320313 12.31292969 -2.04640625 11.62585938 -2.0703125 10.91796875 C-2.08835937 10.01691406 -2.10640625 9.11585937 -2.125 8.1875 C-2.14820313 7.29417969 -2.17140625 6.40085937 -2.1953125 5.48046875 C-2 3 -2 3 0 0 Z " fill="#413F40" transform="translate(267,103)"/>
<path d="M0 0 C0.33 0 0.66 0 1 0 C1 1.98 1 3.96 1 6 C1.66 6.33 2.32 6.66 3 7 C2.34 7 1.68 7 1 7 C1 7.99 1 8.98 1 10 C-1.64 10 -4.28 10 -7 10 C-7 8.68 -7 7.36 -7 6 C-4.69 6 -2.38 6 0 6 C0 4.02 0 2.04 0 0 Z " fill="#6C6A6B" transform="translate(225,83)"/>
<path d="M0 0 C1.98 0 3.96 0 6 0 C6 3.3 6 6.6 6 10 C5.01 10 4.02 10 3 10 C3 7.69 3 5.38 3 3 C2.01 3 1.02 3 0 3 C0 2.01 0 1.02 0 0 Z " fill="#E5E4E5" transform="translate(229,116)"/>
<path d="M0 0 C2.97 0 5.94 0 9 0 C9 1.32 9 2.64 9 4 C6.69 3.67 4.38 3.34 2 3 C1.67 4.98 1.34 6.96 1 9 C0.67 9 0.34 9 0 9 C0 6.03 0 3.06 0 0 Z " fill="#F3F2F3" transform="translate(255,106)"/>
<path d="M0 0 C0.33 0.99 0.66 1.98 1 3 C2.65 3 4.3 3 6 3 C6 2.34 6 1.68 6 1 C5.34 0.67 4.68 0.34 4 0 C4.99 0 5.98 0 7 0 C7 1.32 7 2.64 7 4 C5.02 4 3.04 4 1 4 C1 4.99 1 5.98 1 7 C1.66 7 2.32 7 3 7 C3 7.99 3 8.98 3 10 C2.01 10 1.02 10 0 10 C0 9.01 0 8.02 0 7 C-0.99 7 -1.98 7 -3 7 C-3 5.68 -3 4.36 -3 3 C-2.01 3 -1.02 3 0 3 C0 2.01 0 1.02 0 0 Z " fill="#B7B5B6" transform="translate(238,76)"/>
<path d="M0 0 C0.99 0.33 1.98 0.66 3 1 C3.33 2.65 3.66 4.3 4 6 C3.01 6 2.02 6 1 6 C0.34 6.66 -0.32 7.32 -1 8 C-3.125 7.625 -3.125 7.625 -5 7 C-3.70700306 4.11562221 -2.34058637 2.12780579 0 0 Z " fill="#343031" transform="translate(170,7)"/>
<path d="M0 0 C2.0625 0.4375 2.0625 0.4375 4 1 C4 2.98 4 4.96 4 7 C3.01 7 2.02 7 1 7 C0.67 7.99 0.34 8.98 0 10 C-0.19412181 8.52168779 -0.38012131 7.04230684 -0.5625 5.5625 C-0.66691406 4.73878906 -0.77132812 3.91507812 -0.87890625 3.06640625 C-0.91886719 2.38449219 -0.95882812 1.70257813 -1 1 C-0.67 0.67 -0.34 0.34 0 0 Z " fill="#F5F5F5" transform="translate(224,122)"/>
<path d="M0 0 C0.33 0 0.66 0 1 0 C1 2.31 1 4.62 1 7 C1.99 7 2.98 7 4 7 C4 7.99 4 8.98 4 10 C3.01 10 2.02 10 1 10 C0.67 10.99 0.34 11.98 0 13 C0 12.01 0 11.02 0 10 C-0.99 10 -1.98 10 -3 10 C-3 8.68 -3 7.36 -3 6 C-2.01 6 -1.02 6 0 6 C0 4.02 0 2.04 0 0 Z " fill="#989697" transform="translate(241,63)"/>
<path d="M0 0 C2.64 0 5.28 0 8 0 C8 0.66 8 1.32 8 2 C7.01 2 6.02 2 5 2 C5 2.99 5 3.98 5 5 C3.02 5 1.04 5 -1 5 C-0.67 3.35 -0.34 1.7 0 0 Z " fill="#221E20" transform="translate(272,77)"/>
<path d="M0 0 C0.33 0.99 0.66 1.98 1 3 C2.32 3 3.64 3 5 3 C5.33 3.99 5.66 4.98 6 6 C6.66 6.33 7.32 6.66 8 7 C8 7.66 8 8.32 8 9 C6.35 9 4.7 9 3 9 C3 8.01 3 7.02 3 6 C2.01 6 1.02 6 0 6 C0 4.02 0 2.04 0 0 Z " fill="#FAFAFA" transform="translate(236,70)"/>
<path d="M0 0 C0.33 0 0.66 0 1 0 C1 3.3 1 6.6 1 10 C0.34 9.01 -0.32 8.02 -1 7 C-2.32 7 -3.64 7 -5 7 C-5 8.98 -5 10.96 -5 13 C-5.33 13 -5.66 13 -6 13 C-6 10.69 -6 8.38 -6 6 C-4.68 6 -3.36 6 -2 6 C-1.855625 5.195625 -1.71125 4.39125 -1.5625 3.5625 C-1 1 -1 1 0 0 Z " fill="#595758" transform="translate(254,106)"/>
<path d="M0 0 C1.65 0 3.3 0 5 0 C5 1.98 5 3.96 5 6 C3.35 6 1.7 6 0 6 C0 4.02 0 2.04 0 0 Z " fill="#242021" transform="translate(272,103)"/>
<path d="M0 0 C1.98 0 3.96 0 6 0 C6 2.31 6 4.62 6 7 C5.01 7 4.02 7 3 7 C3 5.68 3 4.36 3 3 C2.01 3 1.02 3 0 3 C0 2.01 0 1.02 0 0 Z " fill="#413F40" transform="translate(252,76)"/>
<path d="M0 0 C2.31 0 4.62 0 7 0 C7 0.99 7 1.98 7 3 C7.99 3.33 8.98 3.66 10 4 C9.01 4 8.02 4 7 4 C7 4.99 7 5.98 7 7 C5.68 7 4.36 7 3 7 C3.33 5.68 3.66 4.36 4 3 C4.66 3 5.32 3 6 3 C6 2.34 6 1.68 6 1 C4.35 1 2.7 1 1 1 C0.67 1.66 0.34 2.32 0 3 C0 2.01 0 1.02 0 0 Z " fill="#868485" transform="translate(215,99)"/>
<path d="M0 0 C0.33 0 0.66 0 1 0 C1 1.65 1 3.3 1 5 C0.01 5 -0.98 5 -2 5 C-2 5.99 -2 6.98 -2 8 C-3.65 8 -5.3 8 -7 8 C-7 7.34 -7 6.68 -7 6 C-6.01 6 -5.02 6 -4 6 C-4 4.68 -4 3.36 -4 2 C-2.68 2 -1.36 2 0 2 C0 1.34 0 0.68 0 0 Z " fill="#FAFAFA" transform="translate(246,94)"/>
<path d="M0 0 C0.33 0 0.66 0 1 0 C1 2.31 1 4.62 1 7 C0.01 7 -0.98 7 -2 7 C-2 7.99 -2 8.98 -2 10 C-3.32 10 -4.64 10 -6 10 C-6 8.68 -6 7.36 -6 6 C-5.01 6 -4.02 6 -3 6 C-2.67 5.01 -2.34 4.02 -2 3 C-2 3.99 -2 4.98 -2 6 C-1.34 6 -0.68 6 0 6 C0 4.02 0 2.04 0 0 Z " fill="#7A7979" transform="translate(264,83)"/>
<path d="M0 0 C1.32 0 2.64 0 4 0 C4 0.66 4 1.32 4 2 C5.98 2 7.96 2 10 2 C10 2.33 10 2.66 10 3 C7.69 3 5.38 3 3 3 C3 3.99 3 4.98 3 6 C2.01 6 1.02 6 0 6 C0 4.02 0 2.04 0 0 Z " fill="#797878" transform="translate(268,126)"/>
<path d="M0 0 C0.66 0 1.32 0 2 0 C2 0.99 2 1.98 2 3 C2.99 3 3.98 3 5 3 C5 6.3 5 9.6 5 13 C4.67 13 4.34 13 4 13 C3.67 10.69 3.34 8.38 3 6 C1.68 5.67 0.36 5.34 -1 5 C-0.67 3.35 -0.34 1.7 0 0 Z " fill="#222021" transform="translate(262,100)"/>
<path d="M0 0 C0.33 0 0.66 0 1 0 C1 2.31 1 4.62 1 7 C-1.64 7 -4.28 7 -7 7 C-7 5.68 -7 4.36 -7 3 C-5.68 3 -4.36 3 -3 3 C-3 3.99 -3 4.98 -3 6 C-2.01 6 -1.02 6 0 6 C0 4.02 0 2.04 0 0 Z " fill="#B0AFAF" transform="translate(281,96)"/>
<path d="M0 0 C0.66 0 1.32 0 2 0 C1.44271087 3.34373475 0.64826111 6.03312999 -1 9 C-1.66 9 -2.32 9 -3 9 C-3 7.02 -3 5.04 -3 3 C-2.01 3 -1.02 3 0 3 C0 2.01 0 1.02 0 0 Z " fill="#242021" transform="translate(252,90)"/>
<path d="M0 0 C0.33 0.66 0.66 1.32 1 2 C2.65 2 4.3 2 6 2 C5.01 2.33 4.02 2.66 3 3 C3.33 4.32 3.66 5.64 4 7 C3.01 7 2.02 7 1 7 C0.67 7.99 0.34 8.98 0 10 C0 6.7 0 3.4 0 0 Z " fill="#444041" transform="translate(202,83)"/>
<path d="M0 0 C1.98 0 3.96 0 6 0 C6 0.99 6 1.98 6 3 C4.68 3 3.36 3 2 3 C2 3.99 2 4.98 2 6 C1.34 6 0.68 6 0 6 C0 4.02 0 2.04 0 0 Z " fill="#2D2A2B" transform="translate(242,119)"/>
<path d="M0 0 C0.66 1.32 1.32 2.64 2 4 C1.525625 4.350625 1.05125 4.70125 0.5625 5.0625 C-1.67873825 7.84163543 -1.67117658 10.5144717 -2 14 C-2.33 14 -2.66 14 -3 14 C-3.32374517 8.49633208 -3.53286034 4.56327794 0 0 Z " fill="#6A6768" transform="translate(136,72)"/>
<path d="M0 0 C0.66 0 1.32 0 2 0 C2 1.32 2 2.64 2 4 C2.99 4 3.98 4 5 4 C5 4.66 5 5.32 5 6 C4.01 6 3.02 6 2 6 C1.67 7.32 1.34 8.64 1 10 C-0.1577506 6.52674819 -0.06866652 3.63932552 0 0 Z " fill="#F2F1F2" transform="translate(223,63)"/>
<path d="M0 0 C2.31 0 4.62 0 7 0 C6.01 0.495 6.01 0.495 5 1 C5 1.99 5 2.98 5 4 C3.35 4 1.7 4 0 4 C0 2.68 0 1.36 0 0 Z " fill="#898889" transform="translate(254,122)"/>
<path d="M0 0 C2.31 0 4.62 0 7 0 C7 0.99 7 1.98 7 3 C4.69 3 2.38 3 0 3 C0 2.01 0 1.02 0 0 Z " fill="#E0DFE0" transform="translate(271,83)"/>
<path d="M0 0 C0.33 0 0.66 0 1 0 C1 1.65 1 3.3 1 5 C-1.64 4.67 -4.28 4.34 -7 4 C-7 3.34 -7 2.68 -7 2 C-4.69 2 -2.38 2 0 2 C0 1.34 0 0.68 0 0 Z " fill="#262324" transform="translate(210,81)"/>
<path d="M0 0 C0.99 0 1.98 0 3 0 C3 2.31 3 4.62 3 7 C2.01 7 1.02 7 0 7 C0 4.69 0 2.38 0 0 Z " fill="#494848" transform="translate(199,76)"/>
<path d="M0 0 C0.33 0 0.66 0 1 0 C1 4.29 1 8.58 1 13 C0.01 13 -0.98 13 -2 13 C-2 12.01 -2 11.02 -2 10 C-1.34 10 -0.68 10 0 10 C0 6.7 0 3.4 0 0 Z " fill="#3C3A3B" transform="translate(237,119)"/>
<path d="M0 0 C1.98 0 3.96 0 6 0 C6 0.99 6 1.98 6 3 C4.02 3.33 2.04 3.66 0 4 C0 2.68 0 1.36 0 0 Z " fill="#EBEAEB" transform="translate(252,119)"/>
<path d="M0 0 C1.32 0 2.64 0 4 0 C4 1.32 4 2.64 4 4 C3.01 4 2.02 4 1 4 C0.67 4.99 0.34 5.98 0 7 C0 4.69 0 2.38 0 0 Z " fill="#797979" transform="translate(228,102)"/>
<path d="M0 0 C0.99 1.485 0.99 1.485 2 3 C4.56282742 3.72965366 4.56282742 3.72965366 7 4 C7 4.66 7 5.32 7 6 C4.69 6 2.38 6 0 6 C0 4.02 0 2.04 0 0 Z " fill="#221E1F" transform="translate(269,83)"/>
<path d="M0 0 C0.33 0.99 0.66 1.98 1 3 C1.99 3 2.98 3 4 3 C3.67 4.32 3.34 5.64 3 7 C3 6.01 3 5.02 3 4 C2.34 4 1.68 4 1 4 C1 5.98 1 7.96 1 10 C0.67 10 0.34 10 0 10 C0 8.02 0 6.04 0 4 C-0.99 3.67 -1.98 3.34 -3 3 C-2.01 3 -1.02 3 0 3 C0 2.01 0 1.02 0 0 Z " fill="#949293" transform="translate(251,76)"/>
<path d="M0 0 C1.98 0 3.96 0 6 0 C6 0.99 6 1.98 6 3 C4.02 3 2.04 3 0 3 C0 2.01 0 1.02 0 0 Z " fill="#343233" transform="translate(252,129)"/>
<path d="M0 0 C0.33 0 0.66 0 1 0 C1 3.3 1 6.6 1 10 C-0.65 9.67 -2.3 9.34 -4 9 C-3.67 8.34 -3.34 7.68 -3 7 C-2.01 7 -1.02 7 0 7 C0 4.69 0 2.38 0 0 Z " fill="#221F20" transform="translate(236,119)"/>
<path d="M0 0 C0.99 0 1.98 0 3 0 C3 1.98 3 3.96 3 6 C2.01 6 1.02 6 0 6 C0 4.02 0 2.04 0 0 Z " fill="#929091" transform="translate(245,83)"/>
<path d="M0 0 C1.32 0.33 2.64 0.66 4 1 C3.67 2.65 3.34 4.3 3 6 C2.34 6 1.68 6 1 6 C0.67 4.02 0.34 2.04 0 0 Z " fill="#E9E7E8" transform="translate(249,60)"/>
</svg>
