<?xml version="1.0" encoding="utf-8"?>
<svg width="72" height="72" viewBox="0 0 72 72" xmlns="http://www.w3.org/2000/svg">
  <path d="M 10.018 60.918 C 11.006 55.136 16.889 50.273 25.053 47.938 C 28.114 50.79 32.069 52.521 36.393 52.521 C 40.615 52.521 44.492 50.877 47.522 48.145 C 55.372 50.565 60.976 55.358 61.888 61.016 C 55.342 67.789 46.163 72 36 72 C 25.788 72 16.57 67.748 10.018 60.918 Z M 30.326 46.833 C 32.153 47.872 34.21 48.471 36.393 48.471 C 38.495 48.471 40.478 47.913 42.255 46.944 C 46.766 44.482 49.891 39.294 49.891 33.286 C 49.891 24.913 43.837 18.1 36.393 18.1 C 28.95 18.1 22.894 24.913 22.894 33.286 C 22.894 39.203 25.925 44.328 30.326 46.833 Z"/>
</svg>